G04 #@! TF.GenerationSoftware,KiCad,Pcbnew,10.0.4*
G04 #@! TF.CreationDate,2026-06-28T12:07:18+09:00*
G04 #@! TF.ProjectId,CoreMem,436f7265-4d65-46d2-9e6b-696361645f70,rev?*
G04 #@! TF.SameCoordinates,Original*
G04 #@! TF.FileFunction,Copper,L1,Top*
G04 #@! TF.FilePolarity,Positive*
%FSLAX46Y46*%
G04 Gerber Fmt 4.6, Leading zero omitted, Abs format (unit mm)*
G04 Created by KiCad (PCBNEW 10.0.4) date 2026-06-28 12:07:18*
%MOMM*%
%LPD*%
G01*
G04 APERTURE LIST*
G04 Aperture macros list*
%AMRoundRect*
0 Rectangle with rounded corners*
0 $1 Rounding radius*
0 $2 $3 $4 $5 $6 $7 $8 $9 X,Y pos of 4 corners*
0 Add a 4 corners polygon primitive as box body*
4,1,4,$2,$3,$4,$5,$6,$7,$8,$9,$2,$3,0*
0 Add four circle primitives for the rounded corners*
1,1,$1+$1,$2,$3*
1,1,$1+$1,$4,$5*
1,1,$1+$1,$6,$7*
1,1,$1+$1,$8,$9*
0 Add four rect primitives between the rounded corners*
20,1,$1+$1,$2,$3,$4,$5,0*
20,1,$1+$1,$4,$5,$6,$7,0*
20,1,$1+$1,$6,$7,$8,$9,0*
20,1,$1+$1,$8,$9,$2,$3,0*%
G04 Aperture macros list end*
G04 #@! TA.AperFunction,SMDPad,CuDef*
%ADD10RoundRect,0.218750X0.256250X-0.218750X0.256250X0.218750X-0.256250X0.218750X-0.256250X-0.218750X0*%
G04 #@! TD*
G04 #@! TA.AperFunction,ComponentPad*
%ADD11R,1.700000X1.700000*%
G04 #@! TD*
G04 #@! TA.AperFunction,SMDPad,CuDef*
%ADD12R,1.473200X0.228600*%
G04 #@! TD*
G04 #@! TA.AperFunction,SMDPad,CuDef*
%ADD13R,0.228600X1.473200*%
G04 #@! TD*
G04 #@! TA.AperFunction,SMDPad,CuDef*
%ADD14R,1.700000X0.650000*%
G04 #@! TD*
G04 #@! TA.AperFunction,SMDPad,CuDef*
%ADD15RoundRect,0.237500X-0.287500X-0.237500X0.287500X-0.237500X0.287500X0.237500X-0.287500X0.237500X0*%
G04 #@! TD*
G04 #@! TA.AperFunction,SMDPad,CuDef*
%ADD16R,0.600000X1.500000*%
G04 #@! TD*
G04 #@! TA.AperFunction,SMDPad,CuDef*
%ADD17RoundRect,0.218750X-0.218750X-0.256250X0.218750X-0.256250X0.218750X0.256250X-0.218750X0.256250X0*%
G04 #@! TD*
G04 #@! TA.AperFunction,SMDPad,CuDef*
%ADD18RoundRect,0.237500X-0.237500X0.287500X-0.237500X-0.287500X0.237500X-0.287500X0.237500X0.287500X0*%
G04 #@! TD*
G04 #@! TA.AperFunction,SMDPad,CuDef*
%ADD19RoundRect,0.237500X0.287500X0.237500X-0.287500X0.237500X-0.287500X-0.237500X0.287500X-0.237500X0*%
G04 #@! TD*
G04 #@! TA.AperFunction,SMDPad,CuDef*
%ADD20R,1.220000X0.650000*%
G04 #@! TD*
G04 #@! TA.AperFunction,SMDPad,CuDef*
%ADD21R,1.550000X0.600000*%
G04 #@! TD*
G04 #@! TA.AperFunction,SMDPad,CuDef*
%ADD22RoundRect,0.237500X0.237500X-0.287500X0.237500X0.287500X-0.237500X0.287500X-0.237500X-0.287500X0*%
G04 #@! TD*
G04 #@! TA.AperFunction,ComponentPad*
%ADD23O,1.700000X1.700000*%
G04 #@! TD*
G04 #@! TA.AperFunction,ComponentPad*
%ADD24C,1.000000*%
G04 #@! TD*
G04 #@! TA.AperFunction,SMDPad,CuDef*
%ADD25RoundRect,0.250001X0.462499X0.624999X-0.462499X0.624999X-0.462499X-0.624999X0.462499X-0.624999X0*%
G04 #@! TD*
G04 #@! TA.AperFunction,SMDPad,CuDef*
%ADD26RoundRect,0.250000X-0.550000X1.412500X-0.550000X-1.412500X0.550000X-1.412500X0.550000X1.412500X0*%
G04 #@! TD*
G04 #@! TA.AperFunction,SMDPad,CuDef*
%ADD27R,2.000000X2.000000*%
G04 #@! TD*
G04 #@! TA.AperFunction,SMDPad,CuDef*
%ADD28R,1.600000X2.000000*%
G04 #@! TD*
G04 #@! TA.AperFunction,SMDPad,CuDef*
%ADD29RoundRect,0.250000X-1.412500X-0.550000X1.412500X-0.550000X1.412500X0.550000X-1.412500X0.550000X0*%
G04 #@! TD*
G04 #@! TA.AperFunction,SMDPad,CuDef*
%ADD30RoundRect,0.250001X-0.462499X-0.624999X0.462499X-0.624999X0.462499X0.624999X-0.462499X0.624999X0*%
G04 #@! TD*
G04 #@! TA.AperFunction,SMDPad,CuDef*
%ADD31RoundRect,0.250001X0.624999X-0.462499X0.624999X0.462499X-0.624999X0.462499X-0.624999X-0.462499X0*%
G04 #@! TD*
G04 #@! TA.AperFunction,ComponentPad*
%ADD32O,1.905000X2.000000*%
G04 #@! TD*
G04 #@! TA.AperFunction,ComponentPad*
%ADD33R,1.905000X2.000000*%
G04 #@! TD*
G04 #@! TA.AperFunction,SMDPad,CuDef*
%ADD34RoundRect,0.250001X-0.624999X0.462499X-0.624999X-0.462499X0.624999X-0.462499X0.624999X0.462499X0*%
G04 #@! TD*
G04 #@! TA.AperFunction,SMDPad,CuDef*
%ADD35R,2.000000X1.000000*%
G04 #@! TD*
G04 #@! TA.AperFunction,SMDPad,CuDef*
%ADD36R,1.000000X2.000000*%
G04 #@! TD*
G04 #@! TA.AperFunction,SMDPad,CuDef*
%ADD37R,1.500000X2.000000*%
G04 #@! TD*
G04 #@! TA.AperFunction,SMDPad,CuDef*
%ADD38R,3.800000X2.000000*%
G04 #@! TD*
G04 #@! TA.AperFunction,SMDPad,CuDef*
%ADD39R,0.600000X1.550000*%
G04 #@! TD*
G04 #@! TA.AperFunction,SMDPad,CuDef*
%ADD40R,1.500000X0.600000*%
G04 #@! TD*
G04 #@! TA.AperFunction,SMDPad,CuDef*
%ADD41R,0.510000X0.400000*%
G04 #@! TD*
G04 #@! TA.AperFunction,ViaPad*
%ADD42C,0.558800*%
G04 #@! TD*
G04 #@! TA.AperFunction,Conductor*
%ADD43C,0.152400*%
G04 #@! TD*
G04 #@! TA.AperFunction,Conductor*
%ADD44C,0.508000*%
G04 #@! TD*
G04 #@! TA.AperFunction,Conductor*
%ADD45C,0.304800*%
G04 #@! TD*
G04 #@! TA.AperFunction,Conductor*
%ADD46C,1.016000*%
G04 #@! TD*
G04 #@! TA.AperFunction,Conductor*
%ADD47C,1.524000*%
G04 #@! TD*
G04 #@! TA.AperFunction,Conductor*
%ADD48C,2.540000*%
G04 #@! TD*
G04 APERTURE END LIST*
D10*
X113360200Y-57454700D03*
X113360200Y-59029700D03*
D11*
X118237000Y-57302400D03*
X94818200Y-122707400D03*
X67310000Y-68732400D03*
D12*
X88798400Y-40576800D03*
X88798400Y-41076799D03*
X88798400Y-41576800D03*
X88798400Y-42076799D03*
X88798400Y-42576801D03*
X88798400Y-43076800D03*
X88798400Y-43576799D03*
X88798400Y-44076800D03*
X88798400Y-44576799D03*
X88798400Y-45076801D03*
X88798400Y-45576800D03*
X88798400Y-46076799D03*
X88798400Y-46576800D03*
X88798400Y-47076799D03*
X88798400Y-47576801D03*
X88798400Y-48076800D03*
X88798400Y-48576799D03*
X88798400Y-49076800D03*
X88798400Y-49576800D03*
X88798400Y-50076801D03*
X88798400Y-50576800D03*
X88798400Y-51076799D03*
X88798400Y-51576801D03*
X88798400Y-52076800D03*
X88798400Y-52576801D03*
X88798400Y-53076800D03*
X88798400Y-53576799D03*
X88798400Y-54076801D03*
X88798400Y-54576800D03*
X88798400Y-55076801D03*
X88798400Y-55576800D03*
X88798400Y-56076799D03*
X88798400Y-56576801D03*
X88798400Y-57076800D03*
X88798400Y-57576801D03*
X88798400Y-58076800D03*
D13*
X86931200Y-59944000D03*
X86431201Y-59944000D03*
X85931200Y-59944000D03*
X85431201Y-59944000D03*
X84931199Y-59944000D03*
X84431200Y-59944000D03*
X83931201Y-59944000D03*
X83431200Y-59944000D03*
X82931201Y-59944000D03*
X82431199Y-59944000D03*
X81931200Y-59944000D03*
X81431201Y-59944000D03*
X80931200Y-59944000D03*
X80431201Y-59944000D03*
X79931199Y-59944000D03*
X79431200Y-59944000D03*
X78931201Y-59944000D03*
X78431200Y-59944000D03*
X77931200Y-59944000D03*
X77431199Y-59944000D03*
X76931200Y-59944000D03*
X76431201Y-59944000D03*
X75931199Y-59944000D03*
X75431200Y-59944000D03*
X74931199Y-59944000D03*
X74431200Y-59944000D03*
X73931201Y-59944000D03*
X73431199Y-59944000D03*
X72931200Y-59944000D03*
X72431199Y-59944000D03*
X71931200Y-59944000D03*
X71431201Y-59944000D03*
X70931199Y-59944000D03*
X70431200Y-59944000D03*
X69931199Y-59944000D03*
X69431200Y-59944000D03*
D12*
X67564000Y-58076800D03*
X67564000Y-57576801D03*
X67564000Y-57076800D03*
X67564000Y-56576801D03*
X67564000Y-56076799D03*
X67564000Y-55576800D03*
X67564000Y-55076801D03*
X67564000Y-54576800D03*
X67564000Y-54076801D03*
X67564000Y-53576799D03*
X67564000Y-53076800D03*
X67564000Y-52576801D03*
X67564000Y-52076800D03*
X67564000Y-51576801D03*
X67564000Y-51076799D03*
X67564000Y-50576800D03*
X67564000Y-50076801D03*
X67564000Y-49576800D03*
X67564000Y-49076800D03*
X67564000Y-48576799D03*
X67564000Y-48076800D03*
X67564000Y-47576801D03*
X67564000Y-47076799D03*
X67564000Y-46576800D03*
X67564000Y-46076799D03*
X67564000Y-45576800D03*
X67564000Y-45076801D03*
X67564000Y-44576799D03*
X67564000Y-44076800D03*
X67564000Y-43576799D03*
X67564000Y-43076800D03*
X67564000Y-42576801D03*
X67564000Y-42076799D03*
X67564000Y-41576800D03*
X67564000Y-41076799D03*
X67564000Y-40576800D03*
D13*
X69431200Y-38709600D03*
X69931201Y-38709600D03*
X70431200Y-38709600D03*
X70931199Y-38709600D03*
X71431201Y-38709600D03*
X71931200Y-38709600D03*
X72431201Y-38709600D03*
X72931200Y-38709600D03*
X73431199Y-38709600D03*
X73931201Y-38709600D03*
X74431200Y-38709600D03*
X74931201Y-38709600D03*
X75431200Y-38709600D03*
X75931199Y-38709600D03*
X76431201Y-38709600D03*
X76931200Y-38709600D03*
X77431202Y-38709600D03*
X77931200Y-38709600D03*
X78431200Y-38709600D03*
X78931201Y-38709600D03*
X79431200Y-38709600D03*
X79931199Y-38709600D03*
X80431201Y-38709600D03*
X80931200Y-38709600D03*
X81431201Y-38709600D03*
X81931200Y-38709600D03*
X82431199Y-38709600D03*
X82931201Y-38709600D03*
X83431200Y-38709600D03*
X83931201Y-38709600D03*
X84431200Y-38709600D03*
X84931199Y-38709600D03*
X85431201Y-38709600D03*
X85931200Y-38709600D03*
X86431201Y-38709600D03*
X86931200Y-38709600D03*
D14*
X56852800Y-67259200D03*
X56852800Y-65989200D03*
X56852800Y-64719200D03*
X56852800Y-63449200D03*
X64152800Y-63449200D03*
X64152800Y-64719200D03*
X64152800Y-65989200D03*
X64152800Y-67259200D03*
D15*
X63435200Y-55041800D03*
X61685200Y-55041800D03*
D16*
X102285800Y-45280600D03*
X103555800Y-45280600D03*
X104825800Y-45280600D03*
X106095800Y-45280600D03*
X107365800Y-45280600D03*
X108635800Y-45280600D03*
X109905800Y-45280600D03*
X109905800Y-50680600D03*
X108635800Y-50680600D03*
X107365800Y-50680600D03*
X106095800Y-50680600D03*
X104825800Y-50680600D03*
X103555800Y-50680600D03*
X102285800Y-50680600D03*
D10*
X71196200Y-79120900D03*
X71196200Y-80695900D03*
X72847200Y-79120900D03*
X72847200Y-80695900D03*
X69519800Y-79120900D03*
X69519800Y-80695900D03*
D17*
X56388100Y-53136800D03*
X54813100Y-53136800D03*
D18*
X72847200Y-77481400D03*
X72847200Y-75731400D03*
D19*
X54776400Y-54737000D03*
X56526400Y-54737000D03*
D18*
X69519800Y-77456000D03*
X69519800Y-75706000D03*
X71196200Y-77481400D03*
X71196200Y-75731400D03*
D15*
X79716600Y-99542600D03*
X77966600Y-99542600D03*
D18*
X47853600Y-94270800D03*
X47853600Y-92520800D03*
D19*
X48389600Y-103733600D03*
X50139600Y-103733600D03*
X48401000Y-105333800D03*
X50151000Y-105333800D03*
D20*
X53706400Y-118069400D03*
X53706400Y-116169400D03*
X56326400Y-116169400D03*
X56326400Y-117119400D03*
X56326400Y-118069400D03*
D15*
X85203000Y-85496400D03*
X83453000Y-85496400D03*
D21*
X70137000Y-105511600D03*
X70137000Y-106781600D03*
X70137000Y-108051600D03*
X70137000Y-109321600D03*
X64737000Y-109321600D03*
X64737000Y-108051600D03*
X64737000Y-106781600D03*
X64737000Y-105511600D03*
D22*
X62255400Y-108853000D03*
X62255400Y-110603000D03*
D18*
X47853600Y-98004600D03*
X47853600Y-96254600D03*
D21*
X49903400Y-96266000D03*
X49903400Y-94996000D03*
X49903400Y-93726000D03*
X49903400Y-92456000D03*
X55303400Y-92456000D03*
X55303400Y-93726000D03*
X55303400Y-94996000D03*
X55303400Y-96266000D03*
D18*
X57404000Y-96683800D03*
X57404000Y-94933800D03*
D19*
X51588600Y-99711000D03*
X53338600Y-99711000D03*
D18*
X49860200Y-99782600D03*
X49860200Y-98032600D03*
D15*
X59163800Y-114031400D03*
X57413800Y-114031400D03*
D20*
X72049000Y-116474200D03*
X72049000Y-118374200D03*
X69429000Y-118374200D03*
X69429000Y-117424200D03*
X69429000Y-116474200D03*
X94727400Y-49946600D03*
X94727400Y-48046600D03*
X97347400Y-48046600D03*
X97347400Y-48996600D03*
X97347400Y-49946600D03*
D22*
X63474600Y-57316400D03*
X63474600Y-59066400D03*
D23*
X60604400Y-60248800D03*
X58064400Y-60248800D03*
X60604400Y-57708800D03*
D11*
X58064400Y-57708800D03*
D18*
X99288600Y-49871600D03*
X99288600Y-48121600D03*
D20*
X77611600Y-107431800D03*
X77611600Y-109331800D03*
X74991600Y-109331800D03*
X74991600Y-108381800D03*
X74991600Y-107431800D03*
X77840200Y-90540800D03*
X77840200Y-92440800D03*
X75220200Y-92440800D03*
X75220200Y-91490800D03*
X75220200Y-90540800D03*
D15*
X76465400Y-118694200D03*
X74715400Y-118694200D03*
X76440000Y-116332000D03*
X74690000Y-116332000D03*
D19*
X48807400Y-116154200D03*
X50557400Y-116154200D03*
X48807400Y-118008400D03*
X50557400Y-118008400D03*
X80328800Y-108280200D03*
X82078800Y-108280200D03*
D22*
X77292200Y-102934800D03*
X77292200Y-104684800D03*
D18*
X76428600Y-96099600D03*
X76428600Y-94349600D03*
D24*
X96977200Y-43713400D03*
X94792800Y-43738800D03*
X93421200Y-39801800D03*
D19*
X82665600Y-36677600D03*
X84415600Y-36677600D03*
D15*
X100722400Y-43129200D03*
X98972400Y-43129200D03*
D24*
X91338400Y-39801800D03*
X93395800Y-37668200D03*
X91338400Y-37693600D03*
X89306400Y-37668200D03*
X66751200Y-37871400D03*
X64566800Y-37846000D03*
D25*
X125004500Y-59817000D03*
X127979500Y-59817000D03*
X125004500Y-57277000D03*
X127979500Y-57277000D03*
X125004500Y-54711600D03*
X127979500Y-54711600D03*
X125004500Y-52197000D03*
X127979500Y-52197000D03*
D26*
X134518400Y-54251900D03*
X134518400Y-49176900D03*
D27*
X114858800Y-44783000D03*
D28*
X113683800Y-38783000D03*
X116033800Y-38783000D03*
D27*
X120802400Y-38783000D03*
D28*
X121977400Y-44783000D03*
X119627400Y-44783000D03*
D29*
X136039900Y-80187800D03*
X130964900Y-80187800D03*
D25*
X81519700Y-66294000D03*
X84494700Y-66294000D03*
D30*
X66511500Y-116941600D03*
X63536500Y-116941600D03*
D19*
X127903000Y-48844200D03*
X129653000Y-48844200D03*
D22*
X58877200Y-82157600D03*
X58877200Y-83907600D03*
D31*
X78714600Y-79640100D03*
X78714600Y-82615100D03*
D21*
X85031600Y-82880200D03*
X85031600Y-81610200D03*
X85031600Y-80340200D03*
X85031600Y-79070200D03*
X90431600Y-79070200D03*
X90431600Y-80340200D03*
X90431600Y-81610200D03*
X90431600Y-82880200D03*
D18*
X82600800Y-76287600D03*
X82600800Y-74537600D03*
D19*
X80328800Y-106680000D03*
X82078800Y-106680000D03*
D32*
X134518400Y-44780200D03*
X131978400Y-44780200D03*
D33*
X129438400Y-44780200D03*
D22*
X78384400Y-117057200D03*
X78384400Y-118807200D03*
D18*
X103962200Y-67651600D03*
X103962200Y-65901600D03*
D19*
X81243200Y-81584800D03*
X82993200Y-81584800D03*
D18*
X119659400Y-67132200D03*
X119659400Y-65382200D03*
X111861600Y-67550000D03*
X111861600Y-65800000D03*
D25*
X47371000Y-125780800D03*
X50346000Y-125780800D03*
X81519700Y-69316600D03*
X84494700Y-69316600D03*
D30*
X90209700Y-124968000D03*
X87234700Y-124968000D03*
D34*
X125501400Y-41848100D03*
X125501400Y-38873100D03*
D19*
X79679800Y-85420200D03*
X81429800Y-85420200D03*
D15*
X90638600Y-115595400D03*
X88888600Y-115595400D03*
D19*
X56859200Y-124155200D03*
X58609200Y-124155200D03*
X62167800Y-93776800D03*
X63917800Y-93776800D03*
D15*
X81570800Y-92760800D03*
X79820800Y-92760800D03*
D22*
X58364000Y-78633200D03*
X58364000Y-80383200D03*
D18*
X47904400Y-82205800D03*
X47904400Y-80455800D03*
D19*
X68619400Y-93878400D03*
X70369400Y-93878400D03*
X68848000Y-103784400D03*
X70598000Y-103784400D03*
D18*
X47244000Y-112990600D03*
X47244000Y-111240600D03*
D22*
X65379600Y-43868400D03*
X65379600Y-45618400D03*
D24*
X56774000Y-74510000D03*
X54411800Y-74508000D03*
X67236400Y-74820600D03*
X49712800Y-74508000D03*
X52051600Y-74510000D03*
X64874200Y-74820600D03*
X62512000Y-74820600D03*
X60149800Y-74820600D03*
X59912200Y-88607200D03*
X62223600Y-88607200D03*
X64662000Y-88607200D03*
X49407000Y-88741400D03*
X51896200Y-88741400D03*
X67049600Y-88607200D03*
X54334600Y-88665200D03*
X56976200Y-88589000D03*
D30*
X86983900Y-91541600D03*
X84008900Y-91541600D03*
D15*
X50328800Y-128066800D03*
X48578800Y-128066800D03*
D21*
X49798000Y-111171400D03*
X49798000Y-109901400D03*
X49798000Y-108631400D03*
X49798000Y-107361400D03*
X55198000Y-107361400D03*
X55198000Y-108631400D03*
X55198000Y-109901400D03*
X55198000Y-111171400D03*
D34*
X62382400Y-123051900D03*
X62382400Y-120076900D03*
D29*
X90929500Y-120040400D03*
X85854500Y-120040400D03*
D26*
X89712800Y-68145700D03*
X89712800Y-63070700D03*
D29*
X136039900Y-71577200D03*
X130964900Y-71577200D03*
X136039900Y-62839600D03*
X130964900Y-62839600D03*
D35*
X133000000Y-111000000D03*
X133000000Y-113000000D03*
X133000000Y-103000000D03*
X133000000Y-105000000D03*
X133000000Y-95000000D03*
X133000000Y-97000000D03*
X133000000Y-87000000D03*
X133000000Y-89000000D03*
X87000000Y-111000000D03*
X87000000Y-113000000D03*
X87000000Y-103000000D03*
X87000000Y-105000000D03*
X87000000Y-95000000D03*
X87000000Y-97000000D03*
X87000000Y-89000000D03*
X87000000Y-87000000D03*
D36*
X108000000Y-119000000D03*
X100000000Y-119000000D03*
X120000000Y-119000000D03*
X96000000Y-119000000D03*
X104000000Y-119000000D03*
X112000000Y-119000000D03*
X124000000Y-119000000D03*
X116000000Y-119000000D03*
D35*
X129000000Y-94000000D03*
X129000000Y-102000000D03*
X129000000Y-114000000D03*
X129000000Y-90000000D03*
X129000000Y-106000000D03*
X129000000Y-98000000D03*
X129000000Y-110000000D03*
X129000000Y-86000000D03*
X91000000Y-94000000D03*
X91000000Y-102000000D03*
X91000000Y-114000000D03*
X91000000Y-90000000D03*
X91000000Y-106000000D03*
X91000000Y-98000000D03*
X91000000Y-110000000D03*
X91000000Y-86000000D03*
D36*
X124000000Y-81000000D03*
X120000000Y-81000000D03*
X116000000Y-81000000D03*
X112000000Y-81000000D03*
X108000000Y-81000000D03*
X104000000Y-81000000D03*
X100000000Y-81000000D03*
X96000000Y-81000000D03*
D37*
X48486000Y-46990000D03*
X53086000Y-46990000D03*
X50786000Y-46990000D03*
D38*
X50786000Y-40690000D03*
D37*
X57644000Y-46888800D03*
X62244000Y-46888800D03*
X59944000Y-46888800D03*
D38*
X59944000Y-40588800D03*
D21*
X85006200Y-75920600D03*
X85006200Y-74650600D03*
X85006200Y-73380600D03*
X85006200Y-72110600D03*
X90406200Y-72110600D03*
X90406200Y-73380600D03*
X90406200Y-74650600D03*
X90406200Y-75920600D03*
D39*
X97967800Y-64991000D03*
X99237800Y-64991000D03*
X100507800Y-64991000D03*
X101777800Y-64991000D03*
X101777800Y-70391000D03*
X100507800Y-70391000D03*
X99237800Y-70391000D03*
X97967800Y-70391000D03*
X106095800Y-64889400D03*
X107365800Y-64889400D03*
X108635800Y-64889400D03*
X109905800Y-64889400D03*
X109905800Y-70289400D03*
X108635800Y-70289400D03*
X107365800Y-70289400D03*
X106095800Y-70289400D03*
X113817400Y-65016400D03*
X115087400Y-65016400D03*
X116357400Y-65016400D03*
X117627400Y-65016400D03*
X117627400Y-70416400D03*
X116357400Y-70416400D03*
X115087400Y-70416400D03*
X113817400Y-70416400D03*
X121691400Y-65016400D03*
X122961400Y-65016400D03*
X124231400Y-65016400D03*
X125501400Y-65016400D03*
X125501400Y-70416400D03*
X124231400Y-70416400D03*
X122961400Y-70416400D03*
X121691400Y-70416400D03*
D40*
X66271000Y-77908000D03*
X66271000Y-79178000D03*
X66271000Y-80448000D03*
X66271000Y-81718000D03*
X66271000Y-82988000D03*
X66271000Y-84258000D03*
X66271000Y-85528000D03*
X60871000Y-85528000D03*
X60871000Y-84258000D03*
X60871000Y-82988000D03*
X60871000Y-81718000D03*
X60871000Y-80448000D03*
X60871000Y-79178000D03*
X60871000Y-77908000D03*
X55783400Y-77957400D03*
X55783400Y-79227400D03*
X55783400Y-80497400D03*
X55783400Y-81767400D03*
X55783400Y-83037400D03*
X55783400Y-84307400D03*
X55783400Y-85577400D03*
X50383400Y-85577400D03*
X50383400Y-84307400D03*
X50383400Y-83037400D03*
X50383400Y-81767400D03*
X50383400Y-80497400D03*
X50383400Y-79227400D03*
X50383400Y-77957400D03*
D21*
X68638400Y-95783400D03*
X68638400Y-97053400D03*
X68638400Y-98323400D03*
X68638400Y-99593400D03*
X63238400Y-99593400D03*
X63238400Y-98323400D03*
X63238400Y-97053400D03*
X63238400Y-95783400D03*
D31*
X100025200Y-74483900D03*
X100025200Y-77458900D03*
X108077000Y-74647400D03*
X108077000Y-77622400D03*
X78663800Y-73340900D03*
X78663800Y-76315900D03*
X116052600Y-74458500D03*
X116052600Y-77433500D03*
X123952000Y-74610900D03*
X123952000Y-77585900D03*
D15*
X99731800Y-57353200D03*
X97981800Y-57353200D03*
X121880600Y-48183800D03*
X120130600Y-48183800D03*
D19*
X113907600Y-48082200D03*
X115657600Y-48082200D03*
X113882200Y-49784000D03*
X115632200Y-49784000D03*
X120130600Y-49809400D03*
X121880600Y-49809400D03*
D15*
X106513600Y-43332400D03*
X104763600Y-43332400D03*
D18*
X54432200Y-67524600D03*
X54432200Y-65774600D03*
D15*
X51192400Y-66548000D03*
X49442400Y-66548000D03*
X51167000Y-68732400D03*
X49417000Y-68732400D03*
X68464400Y-64744600D03*
X66714400Y-64744600D03*
D19*
X56757600Y-69240400D03*
X58507600Y-69240400D03*
D18*
X63601600Y-51522600D03*
X63601600Y-49772600D03*
D19*
X53633400Y-113233200D03*
X55383400Y-113233200D03*
X64758600Y-111150400D03*
X66508600Y-111150400D03*
D22*
X58013600Y-90819000D03*
X58013600Y-92569000D03*
D15*
X77481400Y-125323600D03*
X75731400Y-125323600D03*
X67677000Y-124155200D03*
X65927000Y-124155200D03*
D18*
X57353200Y-100330000D03*
X57353200Y-98580000D03*
D34*
X81280000Y-122950300D03*
X81280000Y-119975300D03*
X71602600Y-123636100D03*
X71602600Y-120661100D03*
D19*
X53735000Y-105562400D03*
X55485000Y-105562400D03*
X74994800Y-111836200D03*
X76744800Y-111836200D03*
D15*
X58583800Y-125780800D03*
X56833800Y-125780800D03*
X70140800Y-111226600D03*
X68390800Y-111226600D03*
X76744800Y-113461800D03*
X74994800Y-113461800D03*
X51522600Y-113766600D03*
X49772600Y-113766600D03*
D30*
X84570900Y-114985800D03*
X81595900Y-114985800D03*
D34*
X53594000Y-123153500D03*
X53594000Y-120178500D03*
D22*
X60528200Y-105271600D03*
X60528200Y-107021600D03*
X60528200Y-108853000D03*
X60528200Y-110603000D03*
X62255400Y-105297000D03*
X62255400Y-107047000D03*
D30*
X87110900Y-107416600D03*
X84135900Y-107416600D03*
D22*
X70739000Y-96788000D03*
X70739000Y-98538000D03*
D15*
X66229200Y-101523800D03*
X64479200Y-101523800D03*
X63917800Y-92024200D03*
X62167800Y-92024200D03*
X70547200Y-101498400D03*
X68797200Y-101498400D03*
D22*
X61036200Y-98439000D03*
X61036200Y-100189000D03*
D30*
X86704500Y-99161600D03*
X83729500Y-99161600D03*
D20*
X110225200Y-57800200D03*
X110225200Y-58750200D03*
X110225200Y-59700200D03*
X107605200Y-59700200D03*
X107605200Y-58750200D03*
X107605200Y-57800200D03*
X104713400Y-57800200D03*
X104713400Y-58750200D03*
X104713400Y-59700200D03*
X102093400Y-59700200D03*
X102093400Y-58750200D03*
X102093400Y-57800200D03*
D41*
X98181400Y-60240800D03*
X98181400Y-59240800D03*
X99481400Y-59740800D03*
D20*
X68213600Y-120563600D03*
X68213600Y-121513600D03*
X68213600Y-122463600D03*
X65593600Y-122463600D03*
X65593600Y-121513600D03*
X65593600Y-120563600D03*
X78079600Y-120512800D03*
X78079600Y-121462800D03*
X78079600Y-122412800D03*
X75459600Y-122412800D03*
X75459600Y-121462800D03*
X75459600Y-120512800D03*
X50687600Y-120563600D03*
X50687600Y-121513600D03*
X50687600Y-122463600D03*
X48067600Y-122463600D03*
X48067600Y-121513600D03*
X48067600Y-120563600D03*
X59323600Y-120512800D03*
X59323600Y-121462800D03*
X59323600Y-122412800D03*
X56703600Y-122412800D03*
X56703600Y-121462800D03*
X56703600Y-120512800D03*
X80452600Y-112557600D03*
X80452600Y-111607600D03*
X80452600Y-110657600D03*
X83072600Y-110657600D03*
X83072600Y-111607600D03*
X83072600Y-112557600D03*
X80605000Y-104683600D03*
X80605000Y-103733600D03*
X80605000Y-102783600D03*
X83225000Y-102783600D03*
X83225000Y-103733600D03*
X83225000Y-104683600D03*
X80706600Y-96962000D03*
X80706600Y-96012000D03*
X80706600Y-95062000D03*
X83326600Y-95062000D03*
X83326600Y-96012000D03*
X83326600Y-96962000D03*
X80351000Y-89037200D03*
X80351000Y-88087200D03*
X80351000Y-87137200D03*
X82971000Y-87137200D03*
X82971000Y-88087200D03*
X82971000Y-89037200D03*
D23*
X52019200Y-63093600D03*
X49479200Y-63093600D03*
X52019200Y-60553600D03*
X49479200Y-60553600D03*
X52019200Y-58013600D03*
X49479200Y-58013600D03*
X52019200Y-55473600D03*
D11*
X49479200Y-55473600D03*
D23*
X109372400Y-38303200D03*
X106832400Y-38303200D03*
X104292400Y-38303200D03*
X101752400Y-38303200D03*
X99212400Y-38303200D03*
D11*
X96672400Y-38303200D03*
D15*
X68388200Y-61950600D03*
X66638200Y-61950600D03*
D18*
X77343000Y-64197200D03*
X77343000Y-62447200D03*
D22*
X91846400Y-44006800D03*
X91846400Y-45756800D03*
D18*
X91846400Y-58990200D03*
X91846400Y-57240200D03*
D15*
X80961200Y-62611000D03*
X79211200Y-62611000D03*
D22*
X65405000Y-40196800D03*
X65405000Y-41946800D03*
D15*
X75703400Y-36677600D03*
X73953400Y-36677600D03*
D22*
X65278000Y-47969200D03*
X65278000Y-49719200D03*
D31*
X92202000Y-47712300D03*
X92202000Y-50687300D03*
D25*
X48118700Y-50038000D03*
X51093700Y-50038000D03*
X57211900Y-49936400D03*
X60186900Y-49936400D03*
X58329500Y-37719000D03*
X61304500Y-37719000D03*
X49185500Y-37795200D03*
X52160500Y-37795200D03*
D42*
X90271600Y-46278800D03*
X90703400Y-43992800D03*
X85013800Y-39903400D03*
X64287400Y-43865800D03*
X79197200Y-111607600D03*
X63220600Y-109321600D03*
X58364000Y-77374600D03*
X79502000Y-117119400D03*
X93421200Y-119989600D03*
X90246200Y-123266200D03*
X90652600Y-116840000D03*
X79425800Y-96012000D03*
X79095600Y-88061800D03*
X81254600Y-80543400D03*
X91821000Y-80365600D03*
X91922600Y-73406000D03*
X81432400Y-76327000D03*
X89763600Y-70637400D03*
X92176600Y-60147200D03*
X97307400Y-60248800D03*
X111506000Y-58750200D03*
X125501400Y-43611800D03*
X118364000Y-38785800D03*
X136697700Y-53370500D03*
X116382800Y-71932800D03*
X124231400Y-71932800D03*
X108635800Y-71780400D03*
X100533200Y-71983600D03*
X103962200Y-68834000D03*
X111836200Y-68783200D03*
X119761000Y-68529200D03*
X136017000Y-61315600D03*
X136042400Y-69951600D03*
X56692800Y-37719000D03*
X47523400Y-38963600D03*
X57632600Y-44805600D03*
X48514000Y-45135800D03*
X66573400Y-39674800D03*
X66192400Y-51612800D03*
X105791002Y-58775600D03*
X47371000Y-124129800D03*
X47345600Y-128066800D03*
X57962800Y-122605800D03*
X60604400Y-121462800D03*
X69570600Y-121513600D03*
X66852800Y-122580400D03*
X79324200Y-121462800D03*
X136042400Y-78613000D03*
X80441800Y-37465000D03*
X81178400Y-37261800D03*
X76987400Y-37058600D03*
X84429600Y-58648610D03*
X79349600Y-103733600D03*
X51968400Y-121513600D03*
X123317000Y-60604400D03*
X123240800Y-58293000D03*
X123240800Y-55702200D03*
X123240800Y-53187600D03*
X90170000Y-42568790D03*
X57581800Y-117094000D03*
X66370190Y-118389400D03*
X68275200Y-117449600D03*
X64922400Y-99593400D03*
X67995800Y-104800400D03*
X63322200Y-110617000D03*
X67589400Y-112090200D03*
X67360800Y-93878400D03*
X47879000Y-99390200D03*
X53340000Y-98526600D03*
X56667400Y-105562400D03*
X56667400Y-107391200D03*
X56845200Y-92481400D03*
X61112400Y-92049600D03*
X67691000Y-101473000D03*
X63271400Y-101549200D03*
X57632600Y-81762600D03*
X67818000Y-80467200D03*
X100482400Y-49834800D03*
X108635800Y-43942000D03*
X107340400Y-52146200D03*
X106121200Y-52095400D03*
X65887600Y-56584810D03*
X68376800Y-60807600D03*
X64135000Y-62509400D03*
X81534000Y-67818000D03*
X55930800Y-46863000D03*
X75939210Y-61391800D03*
X77368400Y-65506600D03*
X80645000Y-63677800D03*
X53492400Y-52705000D03*
X46710600Y-50012600D03*
X76377800Y-91465400D03*
X79679800Y-84124800D03*
X69570600Y-81889600D03*
X71170800Y-81788000D03*
X72847200Y-81737200D03*
X47929800Y-83413600D03*
X76225400Y-108407200D03*
X79121000Y-106654600D03*
X47294800Y-114147600D03*
X50114200Y-106324400D03*
X65024000Y-51562000D03*
X71094600Y-52705000D03*
X73914000Y-42138600D03*
X71094600Y-42138600D03*
X69469000Y-53975000D03*
X72618600Y-53975000D03*
X82931000Y-57962800D03*
X82931000Y-55270400D03*
X52324000Y-68732400D03*
X52324000Y-66548000D03*
X45923200Y-69926200D03*
X65455800Y-53568600D03*
X45745380Y-100863420D03*
X47498000Y-100863400D03*
X57023000Y-102895400D03*
X65659000Y-103962200D03*
X67310000Y-105511600D03*
X48423800Y-111240600D03*
X48768000Y-96266000D03*
X65887600Y-99695000D03*
X48964600Y-80511400D03*
X53949600Y-80518000D03*
X59404400Y-80448000D03*
X111861600Y-47015400D03*
X109753400Y-47929800D03*
X45937500Y-52719300D03*
X60020196Y-102895400D03*
X109905800Y-52120800D03*
X109931200Y-53213000D03*
X68910200Y-48437800D03*
X73228200Y-48437800D03*
X81559400Y-48717200D03*
X87249000Y-48717200D03*
X87227600Y-49576800D03*
X81657000Y-49576800D03*
X73228200Y-49276000D03*
X68910200Y-49276000D03*
X102666800Y-40284400D03*
X101904800Y-43230800D03*
X54457600Y-57404000D03*
X54873870Y-62049565D03*
X55753000Y-60452000D03*
X55753000Y-57150000D03*
X55143400Y-58039000D03*
X55477218Y-61446218D03*
X85267800Y-86944200D03*
X78384400Y-86360000D03*
X65176400Y-91236800D03*
X65201800Y-92659200D03*
X73863200Y-86360000D03*
X85852000Y-122631200D03*
X73888600Y-121462800D03*
X55372010Y-121459181D03*
X64338210Y-121539000D03*
X87122000Y-81635600D03*
X87122000Y-115087400D03*
X103200200Y-63754000D03*
X108762800Y-63246000D03*
X99263200Y-63754000D03*
X107365800Y-63754000D03*
X115138200Y-63754000D03*
X122986800Y-63677800D03*
X87071200Y-96012000D03*
X87122000Y-103987600D03*
X87122000Y-87985600D03*
X87122000Y-112014000D03*
X91313000Y-63754000D03*
X59842400Y-123698000D03*
X128193800Y-63754000D03*
X127533400Y-63754000D03*
X126898400Y-63754000D03*
X86159300Y-63731100D03*
X86159300Y-69288700D03*
X111683800Y-63754000D03*
X119583200Y-63754000D03*
X87122000Y-85547200D03*
X77698600Y-93929200D03*
X49783998Y-123698000D03*
X63500000Y-118668800D03*
X83058000Y-108839000D03*
X87122000Y-100965000D03*
X74447400Y-100330000D03*
X71805800Y-100330000D03*
X74523600Y-102666800D03*
X71240924Y-102743010D03*
X74701400Y-110540800D03*
X71729600Y-110744000D03*
X63500000Y-124968000D03*
X60553600Y-124968000D03*
X59156600Y-117094000D03*
X59156600Y-115544600D03*
X54508400Y-127304800D03*
X52832001Y-127279399D03*
X51866800Y-122524800D03*
X50596800Y-112699800D03*
X134950200Y-97002600D03*
X79502000Y-125628400D03*
X79197600Y-122412800D03*
X70713600Y-113792000D03*
X134975600Y-89077800D03*
X69646800Y-124790200D03*
X66878200Y-120040400D03*
X66087177Y-114274590D03*
X97129600Y-54127400D03*
X97104200Y-51511200D03*
X106146600Y-61798200D03*
X121691400Y-61722000D03*
X113842800Y-61798200D03*
X97967800Y-61772800D03*
X84364399Y-62988237D03*
X123037600Y-62280800D03*
X125552200Y-62280800D03*
X83540600Y-78486000D03*
X83591400Y-72136000D03*
X117652800Y-62306200D03*
X109905800Y-62306200D03*
X101777800Y-62306200D03*
X84455000Y-63906400D03*
X74853800Y-93421200D03*
X71818352Y-93405510D03*
X74574400Y-98679000D03*
X71831200Y-98679000D03*
X65437900Y-90575407D03*
X66040000Y-92659200D03*
X84912200Y-105740200D03*
X71805800Y-105714800D03*
X60299600Y-90220800D03*
X63017400Y-90246200D03*
X55041800Y-115874800D03*
X55041800Y-114554000D03*
X59893200Y-117068600D03*
X59893200Y-115544600D03*
X71704200Y-108229400D03*
X73787000Y-110235990D03*
X135077200Y-87071200D03*
X71628000Y-125628400D03*
X67691000Y-119456200D03*
X67259200Y-114503200D03*
X134975600Y-95046800D03*
X81280000Y-125374422D03*
X81280000Y-121564400D03*
X69748400Y-113792000D03*
X47574200Y-108000800D03*
X47574200Y-109169200D03*
X47214277Y-103428820D03*
X47336330Y-101736628D03*
X59537600Y-90881200D03*
X64211200Y-90322400D03*
X53873411Y-90322400D03*
X52755800Y-90322398D03*
X117017800Y-51790600D03*
X115671600Y-53416200D03*
X115671600Y-61112400D03*
X83388200Y-63144400D03*
X57124600Y-85547200D03*
X58496200Y-85228400D03*
X77139800Y-82981800D03*
X73888600Y-83007200D03*
X69697600Y-82981800D03*
X68173600Y-83007200D03*
X96758489Y-65403338D03*
X125476000Y-68707000D03*
X96193179Y-65834901D03*
X121691400Y-66522600D03*
X117627400Y-67640200D03*
X95677767Y-66324974D03*
X113868200Y-67233800D03*
X95174378Y-66827390D03*
X109956600Y-67894200D03*
X94615000Y-67335400D03*
X106070400Y-68656200D03*
X94038116Y-67817990D03*
X101777800Y-68884800D03*
X93379570Y-68198991D03*
X97967800Y-68986400D03*
X92633801Y-68707001D03*
X61950600Y-49657000D03*
X59969400Y-52908200D03*
X91000000Y-112590000D03*
X85674200Y-77444600D03*
X91821000Y-81635600D03*
X91008200Y-111277400D03*
X104851200Y-46990000D03*
X104876600Y-48742600D03*
X96012000Y-76555600D03*
X121513600Y-76555600D03*
X114046000Y-78917800D03*
X104140000Y-78917800D03*
X112014000Y-72618600D03*
X107391200Y-72593200D03*
X119989600Y-77673200D03*
X97840800Y-77673200D03*
X97739200Y-46609000D03*
X98323400Y-45008800D03*
X52197000Y-36068000D03*
X61468000Y-36068000D03*
X79146400Y-104698800D03*
X84505800Y-102793800D03*
X84531200Y-104775000D03*
X75895200Y-105181390D03*
X84277200Y-87122000D03*
X77927200Y-87299800D03*
X77825600Y-94919800D03*
X84658200Y-95097600D03*
X84785200Y-110413800D03*
X78994000Y-109118400D03*
X57505600Y-118897400D03*
X54533800Y-118872000D03*
X49961800Y-119329200D03*
X48285400Y-123520200D03*
X73329800Y-117856000D03*
X73329800Y-119126000D03*
X78308200Y-97104200D03*
X84709000Y-96926400D03*
X84302600Y-89027000D03*
X76657200Y-89001600D03*
X84378800Y-112547400D03*
X76377800Y-110236000D03*
X64465200Y-120573800D03*
X64465200Y-118948200D03*
X60366713Y-63084523D03*
X90500200Y-48209200D03*
X93675200Y-49123600D03*
X89331800Y-59944000D03*
X113207800Y-60274200D03*
D43*
X75731400Y-125323600D02*
X75731400Y-124674600D01*
X75731400Y-124674600D02*
X76809600Y-123596400D01*
X76809600Y-123596400D02*
X76809600Y-121539000D01*
X76885800Y-121462800D02*
X78079600Y-121462800D01*
X76809600Y-121539000D02*
X76885800Y-121462800D01*
X88843700Y-46576800D02*
X89973600Y-46576800D01*
X89973600Y-46576800D02*
X90271600Y-46278800D01*
X91846400Y-44006800D02*
X90717400Y-44006800D01*
X90717400Y-44006800D02*
X90703400Y-43992800D01*
X84931200Y-38664300D02*
X84931200Y-39820800D01*
X84931200Y-39820800D02*
X85013800Y-39903400D01*
X64290000Y-43868400D02*
X64287400Y-43865800D01*
X65379600Y-43868400D02*
X64290000Y-43868400D01*
X78994000Y-111810800D02*
X79197200Y-111607600D01*
D44*
X58364000Y-78633200D02*
X58364000Y-77374600D01*
D45*
X79439800Y-117057200D02*
X79502000Y-117119400D01*
X78384400Y-117057200D02*
X79439800Y-117057200D01*
X93370400Y-120040400D02*
X93421200Y-119989600D01*
X90929500Y-120040400D02*
X93370400Y-120040400D01*
X90209700Y-123302700D02*
X90246200Y-123266200D01*
X90209700Y-124968000D02*
X90209700Y-123302700D01*
X90638600Y-116826000D02*
X90652600Y-116840000D01*
X90638600Y-115595400D02*
X90638600Y-116826000D01*
D44*
X79121000Y-88087200D02*
X79095600Y-88061800D01*
X80351000Y-88087200D02*
X79121000Y-88087200D01*
X81243200Y-80554800D02*
X81254600Y-80543400D01*
X81243200Y-81584800D02*
X81243200Y-80554800D01*
X91795600Y-80340200D02*
X91821000Y-80365600D01*
X90431600Y-80340200D02*
X91795600Y-80340200D01*
X91897200Y-73380600D02*
X91922600Y-73406000D01*
X90406200Y-73380600D02*
X91897200Y-73380600D01*
X81471800Y-76287600D02*
X81432400Y-76327000D01*
X82600800Y-76287600D02*
X81471800Y-76287600D01*
X89712800Y-70586600D02*
X89763600Y-70637400D01*
X89712800Y-68145700D02*
X89712800Y-70586600D01*
X91846400Y-58990200D02*
X91846400Y-59817000D01*
X91846400Y-59817000D02*
X92176600Y-60147200D01*
D43*
X97315400Y-60240800D02*
X97307400Y-60248800D01*
X98181400Y-60240800D02*
X97315400Y-60240800D01*
X110225200Y-58750200D02*
X111506000Y-58750200D01*
D46*
X125501400Y-41848100D02*
X125501400Y-43611800D01*
X118366800Y-38783000D02*
X118364000Y-38785800D01*
X120802400Y-38783000D02*
X118366800Y-38783000D01*
X118361200Y-38783000D02*
X118364000Y-38785800D01*
X116033800Y-38783000D02*
X118361200Y-38783000D01*
D47*
X134518400Y-53370500D02*
X136697700Y-53370500D01*
D44*
X116357400Y-71907400D02*
X116382800Y-71932800D01*
X116357400Y-70416400D02*
X116357400Y-71907400D01*
X124231400Y-70416400D02*
X124231400Y-71932800D01*
X108635800Y-70289400D02*
X108635800Y-71780400D01*
X100507800Y-71958200D02*
X100533200Y-71983600D01*
X100507800Y-70391000D02*
X100507800Y-71958200D01*
X103962200Y-67651600D02*
X103962200Y-68834000D01*
X111861600Y-68757800D02*
X111836200Y-68783200D01*
X111861600Y-67550000D02*
X111861600Y-68757800D01*
X119659400Y-68427600D02*
X119761000Y-68529200D01*
X119659400Y-67132200D02*
X119659400Y-68427600D01*
X136039900Y-61338500D02*
X136017000Y-61315600D01*
X136039900Y-62839600D02*
X136039900Y-61338500D01*
X136039900Y-69954100D02*
X136042400Y-69951600D01*
X136039900Y-71577200D02*
X136039900Y-69954100D01*
X58329500Y-37719000D02*
X56692800Y-37719000D01*
X48691800Y-37795200D02*
X47523400Y-38963600D01*
X49185500Y-37795200D02*
X48691800Y-37795200D01*
X57644000Y-46888800D02*
X57644000Y-44817000D01*
X57644000Y-44817000D02*
X57632600Y-44805600D01*
X57211900Y-47320900D02*
X57644000Y-46888800D01*
X57211900Y-49936400D02*
X57211900Y-47320900D01*
X48118700Y-47357300D02*
X48486000Y-46990000D01*
X48118700Y-50038000D02*
X48118700Y-47357300D01*
X48486000Y-46990000D02*
X48486000Y-45163800D01*
X48486000Y-45163800D02*
X48514000Y-45135800D01*
X66051400Y-40196800D02*
X66573400Y-39674800D01*
X65405000Y-40196800D02*
X66051400Y-40196800D01*
D43*
X67518700Y-51576800D02*
X66228400Y-51576800D01*
X66228400Y-51576800D02*
X66192400Y-51612800D01*
X104713400Y-58750200D02*
X105765602Y-58750200D01*
X105765602Y-58750200D02*
X105791002Y-58775600D01*
D44*
X47371000Y-125780800D02*
X47371000Y-124129800D01*
D43*
X48578800Y-128066800D02*
X47345600Y-128066800D01*
X56833800Y-124180600D02*
X56859200Y-124155200D01*
X56833800Y-125780800D02*
X56833800Y-124180600D01*
X57962800Y-123051600D02*
X57962800Y-122605800D01*
X56859200Y-124155200D02*
X57962800Y-123051600D01*
D44*
X68213600Y-121513600D02*
X69570600Y-121513600D01*
X65927000Y-124155200D02*
X66852800Y-123229400D01*
X66852800Y-123229400D02*
X66852800Y-122580400D01*
X78079600Y-121462800D02*
X79324200Y-121462800D01*
X81519700Y-67549700D02*
X81584800Y-67614800D01*
X81519700Y-66116200D02*
X81519700Y-67549700D01*
X81519700Y-67679900D02*
X81584800Y-67614800D01*
X81519700Y-69316600D02*
X81519700Y-67679900D01*
X136039900Y-78615500D02*
X136042400Y-78613000D01*
X136039900Y-80187800D02*
X136039900Y-78615500D01*
D43*
X80431200Y-38664300D02*
X80431200Y-37475600D01*
X80431200Y-37475600D02*
X80441800Y-37465000D01*
X80931200Y-37509000D02*
X81178400Y-37261800D01*
X80931200Y-38664300D02*
X80931200Y-37509000D01*
X81762600Y-36677600D02*
X81178400Y-37261800D01*
X82665600Y-36677600D02*
X81762600Y-36677600D01*
X75703400Y-36677600D02*
X76606400Y-36677600D01*
X76606400Y-36677600D02*
X76987400Y-37058600D01*
X67518700Y-56576800D02*
X66203400Y-56576800D01*
X66203400Y-56576800D02*
X66192400Y-56565800D01*
X84431200Y-58650210D02*
X84429600Y-58648610D01*
X84431200Y-59989300D02*
X84431200Y-58650210D01*
D44*
X80605000Y-103733600D02*
X79349600Y-103733600D01*
X50687600Y-121513600D02*
X51968400Y-121513600D01*
X59323600Y-121462800D02*
X60604400Y-121462800D01*
X80452600Y-111607600D02*
X79197200Y-111607600D01*
X80706600Y-96012000D02*
X79425800Y-96012000D01*
X124104400Y-59817000D02*
X123317000Y-60604400D01*
X125004500Y-59817000D02*
X124104400Y-59817000D01*
X124256800Y-57277000D02*
X123240800Y-58293000D01*
X125004500Y-57277000D02*
X124256800Y-57277000D01*
X124231400Y-54711600D02*
X123240800Y-55702200D01*
X125004500Y-54711600D02*
X124231400Y-54711600D01*
X124231400Y-52197000D02*
X123240800Y-53187600D01*
X125004500Y-52197000D02*
X124231400Y-52197000D01*
D43*
X88843700Y-42576800D02*
X90161990Y-42576800D01*
X90161990Y-42576800D02*
X90170000Y-42568790D01*
X57556400Y-117119400D02*
X57581800Y-117094000D01*
X56326400Y-117119400D02*
X57556400Y-117119400D01*
D44*
X66511500Y-118248090D02*
X66370190Y-118389400D01*
X66511500Y-116941600D02*
X66511500Y-118248090D01*
D43*
X68300600Y-117424200D02*
X68275200Y-117449600D01*
X69429000Y-117424200D02*
X68300600Y-117424200D01*
X63238400Y-99593400D02*
X64922400Y-99593400D01*
X61631800Y-99593400D02*
X63238400Y-99593400D01*
X61036200Y-100189000D02*
X61631800Y-99593400D01*
X68848000Y-103948200D02*
X67995800Y-104800400D01*
X68848000Y-103784400D02*
X68848000Y-103948200D01*
X64737000Y-109321600D02*
X63220600Y-109321600D01*
X60528200Y-110603000D02*
X62255400Y-110603000D01*
X63308200Y-110603000D02*
X63322200Y-110617000D01*
X62255400Y-110603000D02*
X63308200Y-110603000D01*
X68390800Y-111288800D02*
X67589400Y-112090200D01*
X68390800Y-111226600D02*
X68390800Y-111288800D01*
X68619400Y-93878400D02*
X67360800Y-93878400D01*
D44*
X47853600Y-99364800D02*
X47879000Y-99390200D01*
X47853600Y-98004600D02*
X47853600Y-99364800D01*
X53338600Y-98528000D02*
X53340000Y-98526600D01*
X53338600Y-99711000D02*
X53338600Y-98528000D01*
X55485000Y-105562400D02*
X56667400Y-105562400D01*
X56637600Y-107361400D02*
X56667400Y-107391200D01*
X55198000Y-107361400D02*
X56637600Y-107361400D01*
X56819800Y-92456000D02*
X56845200Y-92481400D01*
X55303400Y-92456000D02*
X56819800Y-92456000D01*
X56932800Y-92569000D02*
X56845200Y-92481400D01*
X58013600Y-92569000D02*
X56932800Y-92569000D01*
X61137800Y-92024200D02*
X61112400Y-92049600D01*
X62167800Y-92024200D02*
X61137800Y-92024200D01*
X67716400Y-101498400D02*
X67691000Y-101473000D01*
X68797200Y-101498400D02*
X67716400Y-101498400D01*
X63296800Y-101523800D02*
X63271400Y-101549200D01*
X64479200Y-101523800D02*
X63296800Y-101523800D01*
D43*
X58027600Y-82157600D02*
X57632600Y-81762600D01*
X58877200Y-82157600D02*
X58027600Y-82157600D01*
X57353201Y-81483201D02*
X57632600Y-81762600D01*
X56367400Y-80497400D02*
X57353201Y-81483201D01*
X55783400Y-80497400D02*
X56367400Y-80497400D01*
X67798800Y-80448000D02*
X67818000Y-80467200D01*
X66271000Y-80448000D02*
X67798800Y-80448000D01*
D44*
X99213600Y-49946600D02*
X99288600Y-49871600D01*
X97347400Y-49946600D02*
X99213600Y-49946600D01*
X100445600Y-49871600D02*
X100482400Y-49834800D01*
X99288600Y-49871600D02*
X100445600Y-49871600D01*
D43*
X108635800Y-45280600D02*
X108635800Y-43942000D01*
X107365800Y-52120800D02*
X107340400Y-52146200D01*
X107365800Y-50680600D02*
X107365800Y-52120800D01*
X106095800Y-52070000D02*
X106121200Y-52095400D01*
X106095800Y-50680600D02*
X106095800Y-52070000D01*
X108026200Y-43332400D02*
X108635800Y-43942000D01*
X106513600Y-43332400D02*
X108026200Y-43332400D01*
X67518700Y-56576800D02*
X65895610Y-56576800D01*
X65895610Y-56576800D02*
X65887600Y-56584810D01*
X68388200Y-60819000D02*
X68376800Y-60807600D01*
X68388200Y-61950600D02*
X68388200Y-60819000D01*
X64152800Y-62527200D02*
X64135000Y-62509400D01*
X64152800Y-63449200D02*
X64152800Y-62527200D01*
D46*
X55956600Y-46888800D02*
X55930800Y-46863000D01*
X57644000Y-46888800D02*
X55956600Y-46888800D01*
D43*
X75931200Y-61254200D02*
X75869800Y-61315600D01*
X75931200Y-59989300D02*
X75931200Y-61254200D01*
X77343000Y-65481200D02*
X77368400Y-65506600D01*
X77343000Y-64197200D02*
X77343000Y-65481200D01*
X80961200Y-63361600D02*
X80645000Y-63677800D01*
X80961200Y-62611000D02*
X80961200Y-63361600D01*
X53924200Y-53136800D02*
X53492400Y-52705000D01*
X54711500Y-53136800D02*
X53924200Y-53136800D01*
X46736000Y-50038000D02*
X46710600Y-50012600D01*
X48118700Y-50038000D02*
X46736000Y-50038000D01*
X76352400Y-91490800D02*
X76377800Y-91465400D01*
X75220200Y-91490800D02*
X76352400Y-91490800D01*
X79679800Y-85420200D02*
X79679800Y-84124800D01*
X69519800Y-81838800D02*
X69570600Y-81889600D01*
X69519800Y-80695900D02*
X69519800Y-81838800D01*
X71196200Y-81762600D02*
X71170800Y-81788000D01*
X71196200Y-80695900D02*
X71196200Y-81762600D01*
X72847200Y-80695900D02*
X72847200Y-81737200D01*
X47904400Y-83388200D02*
X47929800Y-83413600D01*
X47904400Y-82205800D02*
X47904400Y-83388200D01*
X76200000Y-108381800D02*
X76225400Y-108407200D01*
X74991600Y-108381800D02*
X76200000Y-108381800D01*
X78968600Y-111836200D02*
X79197200Y-111607600D01*
X76744800Y-111836200D02*
X78968600Y-111836200D01*
X79146400Y-106680000D02*
X79121000Y-106654600D01*
X80328800Y-106680000D02*
X79146400Y-106680000D01*
X47244000Y-114096800D02*
X47294800Y-114147600D01*
X47244000Y-112990600D02*
X47244000Y-114096800D01*
X50151000Y-106287600D02*
X50114200Y-106324400D01*
X50151000Y-105333800D02*
X50151000Y-106287600D01*
D46*
X59944000Y-46888800D02*
X59944000Y-48234600D01*
X60186900Y-48477500D02*
X60186900Y-49936400D01*
X59944000Y-48234600D02*
X60186900Y-48477500D01*
D44*
X60186900Y-49936400D02*
X61137800Y-49936400D01*
X61137800Y-49936400D02*
X61772800Y-50571400D01*
X61772800Y-50571400D02*
X61772800Y-51155600D01*
X62139800Y-51522600D02*
X63601600Y-51522600D01*
X61772800Y-51155600D02*
X62139800Y-51522600D01*
X63601600Y-51522600D02*
X64984600Y-51522600D01*
X64984600Y-51522600D02*
X65024000Y-51562000D01*
X71094600Y-52705000D02*
X71094600Y-42138600D01*
D43*
X71032800Y-42076800D02*
X71094600Y-42138600D01*
X67518700Y-42076800D02*
X71032800Y-42076800D01*
X65329200Y-42076800D02*
X65303400Y-42051000D01*
X67518700Y-42076800D02*
X65329200Y-42076800D01*
X73931200Y-36699800D02*
X73953400Y-36677600D01*
X73931200Y-38664300D02*
X73931200Y-36699800D01*
X73931200Y-38664300D02*
X73931200Y-42121400D01*
X73931200Y-42121400D02*
X73914000Y-42138600D01*
X78931200Y-57188800D02*
X78816200Y-57073800D01*
D44*
X75793600Y-57073800D02*
X78816200Y-57073800D01*
X71094600Y-55575200D02*
X72593200Y-57073800D01*
X72593200Y-57073800D02*
X75793600Y-57073800D01*
D43*
X78931200Y-59989300D02*
X78931200Y-57188800D01*
X88843700Y-57076800D02*
X90528600Y-57076800D01*
X90692000Y-57240200D02*
X91846400Y-57240200D01*
X90528600Y-57076800D02*
X90692000Y-57240200D01*
D44*
X71094600Y-52705000D02*
X71094600Y-55575200D01*
D47*
X71094600Y-42138600D02*
X71094600Y-55575200D01*
X71094600Y-55575200D02*
X72136000Y-56616600D01*
D43*
X87836200Y-57076800D02*
X87376000Y-56616600D01*
X87376000Y-56616600D02*
X86334600Y-56616600D01*
X88843700Y-57076800D02*
X87836200Y-57076800D01*
D47*
X72136000Y-56616600D02*
X86334600Y-56616600D01*
D44*
X59944000Y-40588800D02*
X59944000Y-46888800D01*
D43*
X78931200Y-59989300D02*
X78931200Y-61303600D01*
X79095600Y-61468000D02*
X79095600Y-62447200D01*
X78931200Y-61303600D02*
X79095600Y-61468000D01*
D46*
X50786000Y-46990000D02*
X50786000Y-48322200D01*
X51093700Y-48629900D02*
X51093700Y-50038000D01*
X50786000Y-48322200D02*
X51093700Y-48629900D01*
D44*
X69469000Y-53975000D02*
X69469000Y-58039000D01*
X69469000Y-58039000D02*
X77343000Y-58039000D01*
D43*
X77431200Y-59989300D02*
X77431200Y-58127200D01*
X77431200Y-58127200D02*
X77343000Y-58039000D01*
D44*
X69469000Y-53975000D02*
X69748399Y-53695601D01*
D43*
X91271400Y-45756800D02*
X91846400Y-45756800D01*
X90932000Y-46096200D02*
X91271400Y-45756800D01*
X90932000Y-46431200D02*
X90932000Y-46096200D01*
X90286400Y-47076800D02*
X90932000Y-46431200D01*
X88843700Y-47076800D02*
X90286400Y-47076800D01*
D46*
X72618600Y-53975000D02*
X83007200Y-53975000D01*
D43*
X88843700Y-51076800D02*
X86159400Y-51076800D01*
X88843700Y-47076800D02*
X85862600Y-47076800D01*
X84431200Y-38664300D02*
X84431200Y-41349600D01*
X72431200Y-38664300D02*
X72431200Y-42129000D01*
X73355200Y-43053000D02*
X78155800Y-43053000D01*
X72431200Y-42129000D02*
X73355200Y-43053000D01*
X69740200Y-45076800D02*
X69748399Y-45084999D01*
X67518700Y-45076800D02*
X69740200Y-45076800D01*
D44*
X69748399Y-45084999D02*
X69748399Y-43967399D01*
D43*
X77431200Y-62762800D02*
X77430600Y-62763400D01*
X77431200Y-59989300D02*
X77431200Y-62762800D01*
X82931200Y-57963000D02*
X82931000Y-57962800D01*
X82931200Y-59989300D02*
X82931200Y-57963000D01*
X82931000Y-54051200D02*
X83007200Y-53975000D01*
X65921200Y-45076800D02*
X65379600Y-45618400D01*
X67518700Y-45076800D02*
X65921200Y-45076800D01*
X51167000Y-68732400D02*
X52324000Y-68732400D01*
X52324000Y-66548000D02*
X51192400Y-66548000D01*
X58479600Y-80498800D02*
X58364000Y-80383200D01*
D44*
X104419400Y-47904400D02*
X104394000Y-47929800D01*
X50786000Y-40690000D02*
X50786000Y-46990000D01*
D43*
X69431200Y-58076800D02*
X69469000Y-58039000D01*
X67518700Y-58076800D02*
X69431200Y-58076800D01*
X69692200Y-50576800D02*
X69748399Y-50520601D01*
X67518700Y-50576800D02*
X69692200Y-50576800D01*
D44*
X69748399Y-50520601D02*
X69748399Y-45084999D01*
X69748399Y-53695601D02*
X69748399Y-50520601D01*
D43*
X84431200Y-36664600D02*
X84443600Y-36652200D01*
X84431200Y-38664300D02*
X84431200Y-36664600D01*
D44*
X82931000Y-55270400D02*
X82931000Y-54051200D01*
D43*
X68638400Y-95783400D02*
X69900800Y-95783400D01*
X70369400Y-95314800D02*
X70369400Y-93878400D01*
X69900800Y-95783400D02*
X70369400Y-95314800D01*
X70137000Y-104245400D02*
X70598000Y-103784400D01*
X70137000Y-105511600D02*
X70137000Y-104245400D01*
D44*
X47498000Y-100863400D02*
X48539400Y-101904800D01*
X48539400Y-101904800D02*
X52628800Y-101904800D01*
X52628800Y-101904800D02*
X53619400Y-102895400D01*
X53619400Y-102895400D02*
X57023000Y-102895400D01*
X67310000Y-105511600D02*
X70137000Y-105511600D01*
X49728800Y-111240600D02*
X49798000Y-111171400D01*
X48423800Y-111240600D02*
X49728800Y-111240600D01*
X47244000Y-111240600D02*
X48423800Y-111240600D01*
X47865000Y-96266000D02*
X47853600Y-96254600D01*
X49903400Y-96266000D02*
X48768000Y-96266000D01*
X48768000Y-96266000D02*
X47865000Y-96266000D01*
X68638400Y-95783400D02*
X67437000Y-95783400D01*
X65887600Y-97332800D02*
X65887600Y-99695000D01*
X67437000Y-95783400D02*
X65887600Y-97332800D01*
D43*
X58428800Y-80448000D02*
X58364000Y-80383200D01*
X60871000Y-80448000D02*
X58428800Y-80448000D01*
X50369400Y-80511400D02*
X50383400Y-80497400D01*
X48163400Y-80511400D02*
X48964600Y-80511400D01*
X48964600Y-80511400D02*
X50369400Y-80511400D01*
D44*
X53929000Y-80497400D02*
X53949600Y-80518000D01*
X50383400Y-80497400D02*
X53929000Y-80497400D01*
X102870000Y-47929800D02*
X104394000Y-47929800D01*
X102285800Y-47345600D02*
X102323900Y-47383700D01*
X102285800Y-45280600D02*
X102285800Y-47345600D01*
X102323900Y-47383700D02*
X102870000Y-47929800D01*
X100697000Y-45756800D02*
X102323900Y-47383700D01*
X106095800Y-45280600D02*
X106095800Y-47802800D01*
X106095800Y-47802800D02*
X106222800Y-47929800D01*
X104394000Y-47929800D02*
X106222800Y-47929800D01*
X109905800Y-48082200D02*
X109905800Y-50680600D01*
X109753400Y-47929800D02*
X109905800Y-48082200D01*
X106222800Y-47929800D02*
X109753400Y-47929800D01*
X99288600Y-48121600D02*
X99288600Y-45869800D01*
X99288600Y-45869800D02*
X99401600Y-45756800D01*
X99401600Y-45756800D02*
X100697000Y-45756800D01*
X91846400Y-45756800D02*
X99401600Y-45756800D01*
X99213600Y-48046600D02*
X99288600Y-48121600D01*
X97347400Y-48046600D02*
X99213600Y-48046600D01*
X94727400Y-48046600D02*
X97347400Y-48046600D01*
D43*
X113683800Y-39935400D02*
X111887000Y-41732200D01*
X113683800Y-38783000D02*
X113683800Y-39935400D01*
X111887000Y-41732200D02*
X111887000Y-45796200D01*
X111887000Y-45796200D02*
X111887000Y-46913800D01*
X111861600Y-46939200D02*
X111861600Y-47015400D01*
X111887000Y-46913800D02*
X111861600Y-46939200D01*
X67518700Y-58076800D02*
X66510200Y-58076800D01*
X66510200Y-58076800D02*
X66294000Y-58293000D01*
X66294000Y-58293000D02*
X66294000Y-60883800D01*
X66638200Y-61228000D02*
X66638200Y-61950600D01*
X66294000Y-60883800D02*
X66638200Y-61228000D01*
X68464400Y-63776800D02*
X66638200Y-61950600D01*
X68464400Y-64744600D02*
X68464400Y-63776800D01*
D46*
X54686200Y-50038000D02*
X53136800Y-50038000D01*
X56362600Y-51714400D02*
X54686200Y-50038000D01*
X60375800Y-51714400D02*
X56362600Y-51714400D01*
X53136800Y-50038000D02*
X51093700Y-50038000D01*
X61747400Y-53086000D02*
X60375800Y-51714400D01*
X64973200Y-53086000D02*
X61747400Y-53086000D01*
X65455800Y-53568600D02*
X64973200Y-53086000D01*
X51093700Y-52719300D02*
X52019200Y-53644800D01*
X51093700Y-50038000D02*
X51093700Y-52719300D01*
X52019200Y-55473600D02*
X52019200Y-53644800D01*
X51093700Y-52719300D02*
X45937500Y-52719300D01*
D45*
X52044600Y-69926200D02*
X52324000Y-69646800D01*
X45923200Y-69926200D02*
X52044600Y-69926200D01*
X52324000Y-68732400D02*
X52324000Y-69646800D01*
X52324000Y-66548000D02*
X52730400Y-66548000D01*
X53300600Y-67118200D02*
X54254400Y-67118200D01*
X52730400Y-66548000D02*
X53300600Y-67118200D01*
X54395400Y-67259200D02*
X54254400Y-67118200D01*
X56852800Y-67259200D02*
X54395400Y-67259200D01*
D43*
X54254400Y-67118200D02*
X54254400Y-68351400D01*
X55143400Y-69240400D02*
X56757600Y-69240400D01*
X54254400Y-68351400D02*
X55143400Y-69240400D01*
D44*
X65659000Y-103962200D02*
X64592200Y-102895400D01*
X64592200Y-102895400D02*
X60415327Y-102895400D01*
X60415327Y-102895400D02*
X60020196Y-102895400D01*
D43*
X109905800Y-50680600D02*
X109905800Y-52120800D01*
X113360200Y-56642000D02*
X113360200Y-57454700D01*
X109931200Y-53213000D02*
X113360200Y-56642000D01*
X67518700Y-48576800D02*
X68771200Y-48576800D01*
X68771200Y-48576800D02*
X68910200Y-48437800D01*
D44*
X73888600Y-48717200D02*
X73609200Y-48437800D01*
X73609200Y-48437800D02*
X73228200Y-48437800D01*
X81559400Y-48717200D02*
X73888600Y-48717200D01*
D43*
X88843700Y-49076800D02*
X87583200Y-49076800D01*
X87583200Y-49076800D02*
X87223600Y-48717200D01*
X65885600Y-48576800D02*
X65278000Y-47969200D01*
X67518700Y-48576800D02*
X65885600Y-48576800D01*
X90837500Y-49076800D02*
X92202000Y-47712300D01*
X88843700Y-49076800D02*
X90837500Y-49076800D01*
X88843700Y-49576800D02*
X87227600Y-49576800D01*
D44*
X73529000Y-49576800D02*
X73228200Y-49276000D01*
X81657000Y-49576800D02*
X73529000Y-49576800D01*
D43*
X68711000Y-49076800D02*
X68910200Y-49276000D01*
X67518700Y-49076800D02*
X68711000Y-49076800D01*
X91015300Y-49576800D02*
X92227400Y-50788900D01*
X88843700Y-49576800D02*
X91015300Y-49576800D01*
X65920400Y-49076800D02*
X65278000Y-49719200D01*
X67518700Y-49076800D02*
X65920400Y-49076800D01*
X65224600Y-49772600D02*
X65278000Y-49719200D01*
X63601600Y-49772600D02*
X65224600Y-49772600D01*
D44*
X89492000Y-106000000D02*
X91000000Y-106000000D01*
X89128600Y-105636600D02*
X89492000Y-106000000D01*
X89128600Y-94363400D02*
X89128600Y-105636600D01*
X89492000Y-94000000D02*
X89128600Y-94363400D01*
X91000000Y-94000000D02*
X89492000Y-94000000D01*
X91000000Y-102000000D02*
X91000000Y-98000000D01*
D43*
X109372400Y-38303200D02*
X105614812Y-42060788D01*
X105614812Y-42060788D02*
X88859712Y-42060788D01*
X88859712Y-42060788D02*
X88843700Y-42076800D01*
X106832400Y-38303200D02*
X106832400Y-39979600D01*
X106832400Y-39979600D02*
X105235200Y-41576800D01*
X105235200Y-41576800D02*
X88843700Y-41576800D01*
X104292400Y-38303200D02*
X104292400Y-39624000D01*
X104292400Y-39624000D02*
X102839600Y-41076800D01*
X102839600Y-41076800D02*
X88843700Y-41076800D01*
X102666800Y-39217600D02*
X102666800Y-40284400D01*
X101752400Y-38303200D02*
X102666800Y-39217600D01*
X100824000Y-43230800D02*
X100722400Y-43129200D01*
X101904800Y-43230800D02*
X100824000Y-43230800D01*
X53829835Y-63093600D02*
X54594471Y-62328964D01*
X52019200Y-63093600D02*
X53829835Y-63093600D01*
X54594471Y-62328964D02*
X54873870Y-62049565D01*
X64668088Y-53822610D02*
X65422278Y-54576800D01*
X61442287Y-53822610D02*
X64668088Y-53822610D01*
X59156600Y-53797200D02*
X61416877Y-53797200D01*
X55473600Y-56388000D02*
X56565800Y-56388000D01*
X65422278Y-54576800D02*
X67518700Y-54576800D01*
X61416877Y-53797200D02*
X61442287Y-53822610D01*
X56565800Y-56388000D02*
X59156600Y-53797200D01*
X54457600Y-57404000D02*
X55473600Y-56388000D01*
X52019200Y-63361600D02*
X52019200Y-63093600D01*
X54432200Y-65774600D02*
X52019200Y-63361600D01*
X49479200Y-66511200D02*
X49442400Y-66548000D01*
X49479200Y-63093600D02*
X49479200Y-66511200D01*
X49479200Y-63093600D02*
X50774600Y-61798200D01*
X50774600Y-61798200D02*
X54406800Y-61798200D01*
X54406800Y-61798200D02*
X55753000Y-60452000D01*
X64389000Y-54279800D02*
X65186000Y-55076800D01*
X65186000Y-55076800D02*
X67518700Y-55076800D01*
X59283600Y-54279800D02*
X64389000Y-54279800D01*
X56413400Y-57150000D02*
X59283600Y-54279800D01*
X55753000Y-57150000D02*
X56413400Y-57150000D01*
X67518700Y-56076800D02*
X60433000Y-56076800D01*
X60433000Y-56076800D02*
X59283600Y-57226200D01*
X59283600Y-58928000D02*
X60604400Y-60248800D01*
X59283600Y-57226200D02*
X59283600Y-58928000D01*
X52869199Y-59703601D02*
X55647955Y-59703601D01*
X55647955Y-59703601D02*
X56423556Y-58928000D01*
X52019200Y-60553600D02*
X52869199Y-59703601D01*
X56423556Y-58928000D02*
X59283600Y-58928000D01*
X58064400Y-57708800D02*
X56438800Y-57708800D01*
X56438800Y-57708800D02*
X54838600Y-59309000D01*
X50723800Y-59309000D02*
X49479200Y-60553600D01*
X54838600Y-59309000D02*
X50723800Y-59309000D01*
X58064400Y-56706400D02*
X58064400Y-57708800D01*
X59957600Y-54813200D02*
X58064400Y-56706400D01*
X61634400Y-54813200D02*
X59957600Y-54813200D01*
X55118000Y-58013600D02*
X55143400Y-58039000D01*
X52019200Y-58013600D02*
X55118000Y-58013600D01*
X56327800Y-64719200D02*
X55477218Y-63868618D01*
X55477218Y-63868618D02*
X55477218Y-61841349D01*
X55477218Y-61841349D02*
X55477218Y-61446218D01*
X56852800Y-64719200D02*
X56327800Y-64719200D01*
X62975528Y-59565472D02*
X62975528Y-61382872D01*
X63474600Y-59066400D02*
X62975528Y-59565472D01*
X62975528Y-61382872D02*
X61849000Y-62509400D01*
X61849000Y-62509400D02*
X60223400Y-62509400D01*
X60223400Y-62509400D02*
X59461400Y-63271400D01*
X59461400Y-63271400D02*
X59461400Y-63906400D01*
X58648600Y-64719200D02*
X56852800Y-64719200D01*
X59461400Y-63906400D02*
X58648600Y-64719200D01*
X46888400Y-60604400D02*
X49479200Y-58013600D01*
X46888400Y-66203800D02*
X46888400Y-60604400D01*
X49417000Y-68732400D02*
X46888400Y-66203800D01*
X67030600Y-67259200D02*
X64152800Y-67259200D01*
X67589400Y-63830200D02*
X67589400Y-66700400D01*
X67233800Y-63474600D02*
X67589400Y-63830200D01*
X65481200Y-62814200D02*
X66141600Y-63474600D01*
X66197400Y-57576800D02*
X65481200Y-58293000D01*
X66141600Y-63474600D02*
X67233800Y-63474600D01*
X65481200Y-58293000D02*
X65481200Y-62814200D01*
X67589400Y-66700400D02*
X67030600Y-67259200D01*
X67518700Y-57576800D02*
X66197400Y-57576800D01*
X64152800Y-67259200D02*
X62077600Y-67259200D01*
X62077600Y-67259200D02*
X59283600Y-70053200D01*
X59283600Y-70053200D02*
X54686200Y-70053200D01*
X54686200Y-70053200D02*
X52273200Y-67640200D01*
X50509200Y-67640200D02*
X49417000Y-68732400D01*
X52273200Y-67640200D02*
X50509200Y-67640200D01*
D44*
X79233000Y-89037200D02*
X80351000Y-89037200D01*
X79271178Y-89075378D02*
X79233000Y-89037200D01*
X79552800Y-90957400D02*
X79271178Y-90675778D01*
X82219800Y-91541600D02*
X81635600Y-90957400D01*
X84008900Y-91541600D02*
X82219800Y-91541600D01*
X79271178Y-90675778D02*
X79271178Y-89075378D01*
X81635600Y-90957400D02*
X79552800Y-90957400D01*
X85323600Y-87000000D02*
X85267800Y-86944200D01*
X87000000Y-87000000D02*
X85323600Y-87000000D01*
X79161600Y-87137200D02*
X80351000Y-87137200D01*
X78384400Y-86360000D02*
X79161600Y-87137200D01*
D43*
X61151800Y-98323400D02*
X61036200Y-98439000D01*
X63238400Y-98323400D02*
X61151800Y-98323400D01*
X65201800Y-92659200D02*
X65201800Y-97993200D01*
X64871600Y-98323400D02*
X63238400Y-98323400D01*
X65201800Y-97993200D02*
X64871600Y-98323400D01*
X67005180Y-91236800D02*
X65176400Y-91236800D01*
X71881980Y-86360000D02*
X67005180Y-91236800D01*
X73863200Y-86360000D02*
X71881980Y-86360000D01*
D46*
X85854500Y-122628700D02*
X85852000Y-122631200D01*
X85854500Y-120040400D02*
X85854500Y-122628700D01*
D44*
X75459600Y-121462800D02*
X74341600Y-121462800D01*
X74341600Y-121462800D02*
X73888600Y-121462800D01*
X56703600Y-121462800D02*
X55375629Y-121462800D01*
X55375629Y-121462800D02*
X55372010Y-121459181D01*
X64363610Y-121513600D02*
X64338210Y-121539000D01*
X65593600Y-121513600D02*
X64363610Y-121513600D01*
X85031600Y-81610200D02*
X87096600Y-81610200D01*
X86918800Y-74650600D02*
X87122000Y-74853800D01*
D46*
X87122000Y-74853800D02*
X87122000Y-81635600D01*
D44*
X85006200Y-74650600D02*
X86918800Y-74650600D01*
D47*
X87096600Y-81610200D02*
X87122000Y-81635600D01*
X85854500Y-120040400D02*
X85854500Y-117574100D01*
X85854500Y-117574100D02*
X87096600Y-116332000D01*
X87096600Y-115112800D02*
X87122000Y-115087400D01*
X87096600Y-116332000D02*
X87096600Y-115112800D01*
D43*
X102855800Y-58750200D02*
X103403400Y-59297800D01*
X102093400Y-58750200D02*
X102855800Y-58750200D01*
X103403400Y-63550800D02*
X103200200Y-63754000D01*
X99237800Y-63779400D02*
X99263200Y-63754000D01*
X99237800Y-64991000D02*
X99237800Y-63779400D01*
X107365800Y-64889400D02*
X107365800Y-63754000D01*
X115087400Y-64813200D02*
X115087400Y-63804800D01*
X115087400Y-63804800D02*
X115138200Y-63754000D01*
X122986800Y-64660800D02*
X122986800Y-63982600D01*
X122961400Y-63703200D02*
X122986800Y-63677800D01*
X122961400Y-65016400D02*
X122961400Y-63703200D01*
X97981800Y-57353200D02*
X97981800Y-56323200D01*
X97981800Y-56323200D02*
X98094800Y-56210200D01*
X98094800Y-56210200D02*
X102946200Y-56210200D01*
X102946200Y-56210200D02*
X103403400Y-56667400D01*
X103403400Y-59791600D02*
X103403400Y-63550800D01*
X103403400Y-56667400D02*
X103403400Y-59791600D01*
X103403400Y-59297800D02*
X103403400Y-59791600D01*
D46*
X87122000Y-74853800D02*
X87122000Y-71348600D01*
D44*
X83326600Y-96012000D02*
X87065802Y-96012000D01*
X83225000Y-103733600D02*
X84632800Y-103733600D01*
X84632800Y-103733600D02*
X84886800Y-103987600D01*
X84886800Y-103987600D02*
X87122000Y-103987600D01*
X82971000Y-88087200D02*
X85344000Y-88087200D01*
X85344000Y-88087200D02*
X85445600Y-87985600D01*
X85445600Y-87985600D02*
X87122000Y-87985600D01*
X83072600Y-111607600D02*
X84632800Y-111607600D01*
X84632800Y-111607600D02*
X85039200Y-112014000D01*
X85039200Y-112014000D02*
X87122000Y-112014000D01*
D43*
X87579200Y-115595400D02*
X87096600Y-115112800D01*
X88888600Y-115595400D02*
X87579200Y-115595400D01*
D44*
X82713800Y-74650600D02*
X82600800Y-74537600D01*
X85006200Y-74650600D02*
X82713800Y-74650600D01*
D43*
X76222000Y-121462800D02*
X76581000Y-121103800D01*
X75459600Y-121462800D02*
X76222000Y-121462800D01*
X76581000Y-121103800D02*
X76581000Y-119151400D01*
X76925200Y-118807200D02*
X78384400Y-118807200D01*
X76581000Y-119151400D02*
X76925200Y-118807200D01*
X58609200Y-124155200D02*
X59385200Y-124155200D01*
X59385200Y-124155200D02*
X59842400Y-123698000D01*
D44*
X85006200Y-81584800D02*
X85031600Y-81610200D01*
X82993200Y-81584800D02*
X85006200Y-81584800D01*
X81853000Y-88087200D02*
X82971000Y-88087200D01*
X81661000Y-86410800D02*
X81661000Y-87895200D01*
X81429800Y-86179600D02*
X81661000Y-86410800D01*
X81661000Y-87895200D02*
X81853000Y-88087200D01*
X81429800Y-85420200D02*
X81429800Y-86179600D01*
X90629700Y-63070700D02*
X91313000Y-63754000D01*
X89712800Y-63070700D02*
X90629700Y-63070700D01*
D47*
X131978400Y-44780200D02*
X131978400Y-46456600D01*
D43*
X131876800Y-48844200D02*
X131978400Y-48945800D01*
X130034000Y-48844200D02*
X131876800Y-48844200D01*
D47*
X131978400Y-48945800D02*
X131978400Y-54152800D01*
X131978400Y-44780200D02*
X131978400Y-47853600D01*
D48*
X131978400Y-54152800D02*
X130911600Y-55219600D01*
D47*
X131978400Y-47853600D02*
X131978400Y-48945800D01*
D48*
X130911600Y-55219600D02*
X130964900Y-55272900D01*
X130964900Y-62839600D02*
X130964900Y-71577200D01*
X129108200Y-62839600D02*
X128193800Y-63754000D01*
X130964900Y-62839600D02*
X129108200Y-62839600D01*
X128193800Y-63754000D02*
X127223801Y-63754000D01*
D46*
X86159300Y-69288700D02*
X86159300Y-68734900D01*
D47*
X86159300Y-70385900D02*
X87122000Y-71348600D01*
X86159300Y-69288700D02*
X86159300Y-70385900D01*
X87122000Y-71348600D02*
X87122000Y-81635600D01*
D43*
X108367600Y-58750200D02*
X108762800Y-59145400D01*
X108762800Y-59584282D02*
X108762800Y-63246000D01*
X107605200Y-58750200D02*
X108367600Y-58750200D01*
X108762800Y-59145400D02*
X108762800Y-59584282D01*
D44*
X103962200Y-64516000D02*
X103200200Y-63754000D01*
X103962200Y-65901600D02*
X103962200Y-64516000D01*
X111861600Y-63931800D02*
X111683800Y-63754000D01*
X111861600Y-65800000D02*
X111861600Y-63931800D01*
X119659400Y-65382200D02*
X119659400Y-63830200D01*
X119659400Y-63830200D02*
X119583200Y-63754000D01*
X86131400Y-69316600D02*
X86159300Y-69288700D01*
X84570900Y-69316600D02*
X86131400Y-69316600D01*
D46*
X87234700Y-124968000D02*
X87234700Y-123074100D01*
X86294900Y-123074100D02*
X85852000Y-122631200D01*
X87234700Y-123074100D02*
X86294900Y-123074100D01*
D44*
X86106000Y-66116200D02*
X86159300Y-66169500D01*
X84494700Y-66116200D02*
X86106000Y-66116200D01*
D47*
X86159300Y-66169500D02*
X86159300Y-69288700D01*
X86159300Y-63731100D02*
X86159300Y-66169500D01*
D48*
X130964900Y-80187800D02*
X130964900Y-71577200D01*
D44*
X131470400Y-52197000D02*
X131978400Y-52705000D01*
X127979500Y-52197000D02*
X131470400Y-52197000D01*
D48*
X131978400Y-52705000D02*
X131978400Y-54152800D01*
X131978400Y-47853600D02*
X131978400Y-52705000D01*
D44*
X130403600Y-54711600D02*
X130964900Y-55272900D01*
X127979500Y-54711600D02*
X130403600Y-54711600D01*
X130657600Y-57277000D02*
X130964900Y-57584300D01*
X127979500Y-57277000D02*
X130657600Y-57277000D01*
D48*
X130964900Y-55272900D02*
X130964900Y-57584300D01*
D44*
X130865800Y-59817000D02*
X130964900Y-59717900D01*
X127979500Y-59817000D02*
X130865800Y-59817000D01*
D48*
X130964900Y-59717900D02*
X130964900Y-62839600D01*
X130964900Y-57584300D02*
X130964900Y-59717900D01*
D43*
X87071200Y-85496400D02*
X87122000Y-85547200D01*
X85203000Y-85496400D02*
X87071200Y-85496400D01*
X76428600Y-94349600D02*
X77278200Y-94349600D01*
X77278200Y-94349600D02*
X77698600Y-93929200D01*
D44*
X50346000Y-125780800D02*
X50346000Y-124260002D01*
X50346000Y-124260002D02*
X50063397Y-123977399D01*
X50063397Y-123977399D02*
X49783998Y-123698000D01*
X49185600Y-121513600D02*
X49352200Y-121680200D01*
X48067600Y-121513600D02*
X49185600Y-121513600D01*
X49352200Y-123266202D02*
X49783998Y-123698000D01*
X49352200Y-121680200D02*
X49352200Y-123266202D01*
D43*
X48807400Y-118583400D02*
X49375400Y-119151400D01*
X48807400Y-118008400D02*
X48807400Y-118583400D01*
X49375400Y-121657000D02*
X49352200Y-121680200D01*
X49375400Y-119151400D02*
X49375400Y-121657000D01*
X48807400Y-116154200D02*
X48807400Y-118008400D01*
X76440000Y-118668800D02*
X76465400Y-118694200D01*
X76440000Y-116332000D02*
X76440000Y-118668800D01*
D44*
X63500000Y-116978100D02*
X63536500Y-116941600D01*
X63500000Y-118668800D02*
X63500000Y-116978100D01*
X82078800Y-106680000D02*
X82078800Y-108280200D01*
X82499200Y-108280200D02*
X83058000Y-108839000D01*
X82078800Y-108280200D02*
X82499200Y-108280200D01*
D43*
X77292200Y-102934800D02*
X77292200Y-101625400D01*
X77292200Y-101625400D02*
X77851000Y-101066600D01*
X77851000Y-101066600D02*
X87020400Y-101066600D01*
X87020400Y-101066600D02*
X87122000Y-100965000D01*
D44*
X80706600Y-96962000D02*
X80706600Y-98054800D01*
X81813400Y-99161600D02*
X83729500Y-99161600D01*
X80706600Y-98054800D02*
X81813400Y-99161600D01*
X79588600Y-95062000D02*
X80706600Y-95062000D01*
X79171800Y-94645200D02*
X79588600Y-95062000D01*
X86725600Y-93878400D02*
X79552800Y-93878400D01*
X79552800Y-93878400D02*
X79171800Y-94259400D01*
X87000000Y-94152800D02*
X86725600Y-93878400D01*
X79171800Y-94259400D02*
X79171800Y-94645200D01*
X87000000Y-95000000D02*
X87000000Y-94152800D01*
D43*
X68638400Y-99593400D02*
X69875400Y-99593400D01*
X70547200Y-100265200D02*
X70547200Y-101498400D01*
X69875400Y-99593400D02*
X70547200Y-100265200D01*
X79171800Y-94645200D02*
X78841600Y-94975400D01*
X78841600Y-94975400D02*
X78841600Y-98856800D01*
X78841600Y-98856800D02*
X78841600Y-100152200D01*
X78841600Y-100152200D02*
X78663800Y-100330000D01*
X78663800Y-100330000D02*
X74447400Y-100330000D01*
X70612000Y-100330000D02*
X70547200Y-100265200D01*
X71805800Y-100330000D02*
X70612000Y-100330000D01*
D44*
X81725590Y-105519190D02*
X80890000Y-104683600D01*
X80890000Y-104683600D02*
X80605000Y-104683600D01*
X84135900Y-107416600D02*
X84135900Y-105929100D01*
X83725990Y-105519190D02*
X82898010Y-105519190D01*
X84135900Y-105929100D02*
X83725990Y-105519190D01*
X82898010Y-105519190D02*
X81725590Y-105519190D01*
X79263200Y-102783600D02*
X80605000Y-102783600D01*
X79171800Y-101930200D02*
X79171800Y-102692200D01*
X86690200Y-101549200D02*
X79552800Y-101549200D01*
X87000000Y-101859000D02*
X86690200Y-101549200D01*
X79171800Y-102692200D02*
X79263200Y-102783600D01*
X79552800Y-101549200D02*
X79171800Y-101930200D01*
X87000000Y-103000000D02*
X87000000Y-101859000D01*
D43*
X63056800Y-108051600D02*
X64737000Y-108051600D01*
X62255400Y-108853000D02*
X63056800Y-108051600D01*
X79171800Y-102692200D02*
X79171800Y-102844600D01*
X79171800Y-102844600D02*
X78206600Y-103809800D01*
X75666600Y-103809800D02*
X74523600Y-102666800D01*
X78206600Y-103809800D02*
X75666600Y-103809800D01*
X68300610Y-102743010D02*
X71240924Y-102743010D01*
X66954390Y-102743010D02*
X68300610Y-102743010D01*
X66624200Y-107467400D02*
X66624200Y-103073200D01*
X66040000Y-108051600D02*
X66624200Y-107467400D01*
X66624200Y-103073200D02*
X66954390Y-102743010D01*
X64737000Y-108051600D02*
X66040000Y-108051600D01*
D44*
X78943200Y-112949000D02*
X79334600Y-112557600D01*
X78943200Y-114503200D02*
X78943200Y-112949000D01*
X79425800Y-114985800D02*
X78943200Y-114503200D01*
X79334600Y-112557600D02*
X80452600Y-112557600D01*
X81595900Y-114985800D02*
X79425800Y-114985800D01*
X79334600Y-110657600D02*
X80452600Y-110657600D01*
X79146400Y-110469400D02*
X79334600Y-110657600D01*
D43*
X79084200Y-109905800D02*
X79146400Y-109905800D01*
D44*
X87000000Y-109992000D02*
X87000000Y-111000000D01*
X86609000Y-109601000D02*
X87000000Y-109992000D01*
X79146400Y-110007400D02*
X79552800Y-109601000D01*
X79552800Y-109601000D02*
X86609000Y-109601000D01*
X79146400Y-110469400D02*
X79146400Y-110007400D01*
D43*
X80452600Y-110657600D02*
X78044000Y-110657600D01*
X78044000Y-110657600D02*
X77881400Y-110820200D01*
X77881400Y-110820200D02*
X74980800Y-110820200D01*
X74980800Y-110820200D02*
X74701400Y-110540800D01*
X71729600Y-110744000D02*
X71729600Y-109728000D01*
X71323200Y-109321600D02*
X70137000Y-109321600D01*
X71729600Y-109728000D02*
X71323200Y-109321600D01*
X71247000Y-111226600D02*
X71729600Y-110744000D01*
X70140800Y-111226600D02*
X71247000Y-111226600D01*
X59323600Y-120512800D02*
X60411400Y-120512800D01*
X60847300Y-120076900D02*
X62382400Y-120076900D01*
X60411400Y-120512800D02*
X60847300Y-120076900D01*
D44*
X133000000Y-113000000D02*
X133000000Y-120034800D01*
X133000000Y-120034800D02*
X128473200Y-124561600D01*
X59486800Y-122474400D02*
X59425200Y-122412800D01*
X60441600Y-122412800D02*
X60553600Y-122524800D01*
X59323600Y-122412800D02*
X60441600Y-122412800D01*
X60553600Y-122524800D02*
X60553600Y-124917200D01*
X63500000Y-124968000D02*
X65100200Y-126568200D01*
X126466600Y-126568200D02*
X128473200Y-124561600D01*
X65100200Y-126568200D02*
X126466600Y-126568200D01*
D43*
X59740800Y-125780800D02*
X60553600Y-124968000D01*
X58583800Y-125780800D02*
X59740800Y-125780800D01*
X58561200Y-122412800D02*
X58242200Y-122093800D01*
X59323600Y-122412800D02*
X58561200Y-122412800D01*
X58242200Y-122093800D02*
X58242200Y-118338600D01*
X59156600Y-117424200D02*
X59156600Y-117094000D01*
X58242200Y-118338600D02*
X59156600Y-117424200D01*
X56383600Y-108631400D02*
X55198000Y-108631400D01*
X57150000Y-112395000D02*
X57150000Y-109397800D01*
X57150000Y-109397800D02*
X56383600Y-108631400D01*
X58336221Y-114724221D02*
X58336221Y-113581221D01*
X58336221Y-113581221D02*
X57150000Y-112395000D01*
X59156600Y-115544600D02*
X58336221Y-114724221D01*
D44*
X52190700Y-120178500D02*
X53594000Y-120178500D01*
X51805600Y-120563600D02*
X52190700Y-120178500D01*
X50687600Y-120563600D02*
X51805600Y-120563600D01*
X134508000Y-105000000D02*
X135788400Y-106280400D01*
X133000000Y-105000000D02*
X134508000Y-105000000D01*
X135788400Y-106280400D02*
X136601200Y-107093200D01*
X136601200Y-107093200D02*
X136601200Y-120243600D01*
X136601200Y-120243600D02*
X129540000Y-127304800D01*
X129540000Y-127304800D02*
X128524000Y-128320800D01*
X128524000Y-128320800D02*
X55524400Y-128320800D01*
X55524400Y-128320800D02*
X54508400Y-127304800D01*
X51866800Y-122524800D02*
X51805600Y-122463600D01*
X51805600Y-122463600D02*
X50687600Y-122463600D01*
D43*
X50328800Y-128066800D02*
X52044600Y-128066800D01*
X52044600Y-128066800D02*
X52552602Y-127558798D01*
X52552602Y-127558798D02*
X52832001Y-127279399D01*
D44*
X52832001Y-127279399D02*
X52832001Y-124942601D01*
X52832001Y-124942601D02*
X51866800Y-123977400D01*
X51866800Y-123520200D02*
X51866800Y-122524800D01*
X51866800Y-123977400D02*
X51866800Y-123520200D01*
D43*
X50770200Y-107361400D02*
X49798000Y-107361400D01*
X51079400Y-107670600D02*
X50770200Y-107361400D01*
X51079400Y-112217200D02*
X51079400Y-107670600D01*
X50596800Y-112699800D02*
X51079400Y-112217200D01*
D44*
X78079600Y-120512800D02*
X79232800Y-120512800D01*
X79770300Y-119975300D02*
X81280000Y-119975300D01*
X79232800Y-120512800D02*
X79770300Y-119975300D01*
X78115200Y-122377200D02*
X78079600Y-122412800D01*
X134947600Y-97000000D02*
X134950200Y-97002600D01*
X133000000Y-97000000D02*
X134947600Y-97000000D01*
X79197600Y-122412800D02*
X78079600Y-122412800D01*
X79502000Y-122717200D02*
X79197600Y-122412800D01*
X79502000Y-125628400D02*
X79502000Y-122717200D01*
D43*
X79197200Y-125323600D02*
X79502000Y-125628400D01*
X77481400Y-125323600D02*
X79197200Y-125323600D01*
X56230800Y-93726000D02*
X55303400Y-93726000D01*
X57835800Y-93726000D02*
X56230800Y-93726000D01*
X58724800Y-110717866D02*
X58724800Y-94615000D01*
X61214724Y-113207790D02*
X58724800Y-110717866D01*
X70129391Y-113207791D02*
X61214724Y-113207790D01*
X58724800Y-94615000D02*
X57835800Y-93726000D01*
X70713600Y-113792000D02*
X70129391Y-113207791D01*
X71505100Y-120563600D02*
X71602600Y-120661100D01*
X68213600Y-120563600D02*
X71505100Y-120563600D01*
D44*
X134897800Y-89000000D02*
X134975600Y-89077800D01*
X133000000Y-89000000D02*
X134897800Y-89000000D01*
X69377600Y-122463600D02*
X68213600Y-122463600D01*
X69672200Y-122758200D02*
X69377600Y-122463600D01*
X69646800Y-124395069D02*
X69672200Y-124369669D01*
X69646800Y-124790200D02*
X69646800Y-124395069D01*
D43*
X69646800Y-124155200D02*
X69672200Y-124129800D01*
X67677000Y-124155200D02*
X69646800Y-124155200D01*
D44*
X69672200Y-124129800D02*
X69672200Y-122758200D01*
X69672200Y-124369669D02*
X69672200Y-124129800D01*
D43*
X67817118Y-122463600D02*
X68213600Y-122463600D01*
X66878200Y-121524682D02*
X67817118Y-122463600D01*
X66878200Y-120040400D02*
X66878200Y-121524682D01*
X50378400Y-92456000D02*
X49903400Y-92456000D01*
X54495700Y-98412300D02*
X52603400Y-96520000D01*
X54495700Y-99250500D02*
X54495700Y-98412300D01*
X56743600Y-101498400D02*
X54495700Y-99250500D01*
X57505600Y-101498400D02*
X56743600Y-101498400D01*
X58115178Y-102107978D02*
X57505600Y-101498400D01*
X52603400Y-96520000D02*
X52603400Y-94681000D01*
X58115178Y-110970379D02*
X58115178Y-102107978D01*
X61419389Y-114274590D02*
X58115178Y-110970379D01*
X52603400Y-94681000D02*
X50378400Y-92456000D01*
X66087177Y-114274590D02*
X61419389Y-114274590D01*
X98181400Y-59240800D02*
X97696400Y-59240800D01*
X97129600Y-58674000D02*
X97129600Y-54127400D01*
X97696400Y-59240800D02*
X97129600Y-58674000D01*
X96709069Y-51511200D02*
X96490259Y-51730010D01*
X96490259Y-51730010D02*
X90922210Y-51730010D01*
X97104200Y-51511200D02*
X96709069Y-51511200D01*
X88843700Y-50576800D02*
X90099200Y-50576800D01*
X90449400Y-50927000D02*
X90449400Y-51257200D01*
X90099200Y-50576800D02*
X90449400Y-50927000D01*
X90922210Y-51730010D02*
X90449400Y-51257200D01*
X102093400Y-57800200D02*
X101056400Y-57800200D01*
X100609400Y-57353200D02*
X99731800Y-57353200D01*
X102052800Y-59740800D02*
X102093400Y-59700200D01*
X100685600Y-57429400D02*
X100660200Y-57404000D01*
X100685600Y-59740800D02*
X100685600Y-57429400D01*
X101056400Y-57800200D02*
X100660200Y-57404000D01*
X99481400Y-59740800D02*
X100685600Y-59740800D01*
X100660200Y-57404000D02*
X100609400Y-57353200D01*
X100685600Y-59740800D02*
X102052800Y-59740800D01*
X106131400Y-61783000D02*
X106146600Y-61798200D01*
X106131400Y-59700200D02*
X106131400Y-61783000D01*
X104713400Y-59700200D02*
X106131400Y-59700200D01*
X121691400Y-64635400D02*
X121716800Y-64660800D01*
X121691400Y-61722000D02*
X121691400Y-64635400D01*
X113817400Y-61823600D02*
X113842800Y-61798200D01*
X113817400Y-64813200D02*
X113817400Y-61823600D01*
X106095800Y-61849000D02*
X106146600Y-61798200D01*
X106095800Y-64889400D02*
X106095800Y-61849000D01*
X97967800Y-61772800D02*
X97967800Y-64991000D01*
X85031600Y-82880200D02*
X83362800Y-82880200D01*
X83362800Y-82880200D02*
X83108800Y-82626200D01*
X83108800Y-82626200D02*
X80746600Y-82626200D01*
X80746600Y-82626200D02*
X80086200Y-81965800D01*
X80086200Y-81965800D02*
X80086200Y-81483200D01*
X80086200Y-81483200D02*
X79756000Y-81153000D01*
X82930989Y-64421647D02*
X84085000Y-63267636D01*
X84085000Y-63267636D02*
X84364399Y-62988237D01*
X82930989Y-70358011D02*
X82930989Y-64421647D01*
X77978000Y-71120000D02*
X82169000Y-71120000D01*
X82169000Y-71120000D02*
X82930989Y-70358011D01*
X106410800Y-59700200D02*
X107605200Y-59700200D01*
X106410800Y-57800200D02*
X106410800Y-59700200D01*
X104713400Y-57800200D02*
X106410800Y-57800200D01*
X106131400Y-59700200D02*
X106410800Y-59700200D01*
X106410800Y-57800200D02*
X107605200Y-57800200D01*
X78282800Y-81153000D02*
X78028800Y-81153000D01*
X79756000Y-81153000D02*
X78282800Y-81153000D01*
X78028800Y-81153000D02*
X77444600Y-80568800D01*
X77444600Y-71653400D02*
X77901800Y-71196200D01*
X77901800Y-71196200D02*
X77978000Y-71120000D01*
X84531200Y-75920600D02*
X84505800Y-75946000D01*
X85006200Y-75920600D02*
X84531200Y-75920600D01*
X84505800Y-75946000D02*
X83997800Y-75946000D01*
X83997800Y-75946000D02*
X83439000Y-75387200D01*
X83439000Y-75387200D02*
X80949800Y-75387200D01*
X80365600Y-74803000D02*
X77444600Y-74803000D01*
X80949800Y-75387200D02*
X80365600Y-74803000D01*
X77444600Y-74803000D02*
X77444600Y-71653400D01*
X77444600Y-80568800D02*
X77444600Y-74803000D01*
X110225200Y-57800200D02*
X111826000Y-57800200D01*
X111826000Y-57800200D02*
X112217200Y-58191400D01*
X112217200Y-58191400D02*
X112217200Y-59385200D01*
X111902200Y-59700200D02*
X110225200Y-59700200D01*
X112217200Y-59385200D02*
X111902200Y-59700200D01*
X85031600Y-79070200D02*
X83743800Y-79070200D01*
X83540600Y-78867000D02*
X83540600Y-78486000D01*
X83743800Y-79070200D02*
X83540600Y-78867000D01*
X84980800Y-72136000D02*
X85006200Y-72110600D01*
X83591400Y-72136000D02*
X84980800Y-72136000D01*
X125501400Y-62331600D02*
X125552200Y-62280800D01*
X125501400Y-65016400D02*
X125501400Y-62331600D01*
X117652800Y-64991000D02*
X117627400Y-65016400D01*
X117652800Y-62306200D02*
X117652800Y-64991000D01*
X109905800Y-64889400D02*
X109905800Y-62306200D01*
X110225200Y-61986800D02*
X109905800Y-62306200D01*
X110225200Y-59700200D02*
X110225200Y-61986800D01*
X101777800Y-62306200D02*
X101777800Y-64991000D01*
X84175601Y-64185799D02*
X84455000Y-63906400D01*
X83591400Y-72136000D02*
X83312001Y-71856601D01*
X83312001Y-71856601D02*
X83312001Y-65049399D01*
X83312001Y-65049399D02*
X84175601Y-64185799D01*
D44*
X86983900Y-89016100D02*
X87000000Y-89000000D01*
X86983900Y-92024200D02*
X86983900Y-89016100D01*
D43*
X86983900Y-91541600D02*
X85459900Y-93065600D01*
X85459900Y-93065600D02*
X83210400Y-93065600D01*
X82905600Y-92760800D02*
X81570800Y-92760800D01*
X83210400Y-93065600D02*
X82905600Y-92760800D01*
D44*
X86704500Y-97295500D02*
X87000000Y-97000000D01*
X86704500Y-99771200D02*
X86704500Y-97295500D01*
D43*
X86410800Y-100711000D02*
X82854800Y-100711000D01*
X86704500Y-100417300D02*
X86410800Y-100711000D01*
X86704500Y-99161600D02*
X86704500Y-100417300D01*
X80885000Y-100711000D02*
X79716600Y-99542600D01*
X82854800Y-100711000D02*
X80885000Y-100711000D01*
X79820800Y-92760800D02*
X78550800Y-91490800D01*
X78550800Y-91490800D02*
X77165200Y-91490800D01*
X77165200Y-91490800D02*
X76479400Y-92176600D01*
X76479400Y-92176600D02*
X76479400Y-92887800D01*
X76479400Y-92887800D02*
X75971400Y-93395800D01*
X74879200Y-93395800D02*
X74853800Y-93421200D01*
X75971400Y-93395800D02*
X74879200Y-93395800D01*
X63238400Y-97053400D02*
X64287400Y-97053400D01*
X64287400Y-97053400D02*
X64643000Y-96697800D01*
X64643000Y-94502000D02*
X63917800Y-93776800D01*
X64643000Y-96697800D02*
X64643000Y-94502000D01*
X63917800Y-93776800D02*
X63917800Y-92024200D01*
X63917800Y-92024200D02*
X70832173Y-92024200D01*
X70832173Y-92024200D02*
X71818352Y-93010379D01*
X71818352Y-93010379D02*
X71818352Y-93405510D01*
X70880000Y-98679000D02*
X70739000Y-98538000D01*
X71831200Y-98679000D02*
X70880000Y-98679000D01*
X70739000Y-98538000D02*
X69912200Y-98538000D01*
X69697600Y-98323400D02*
X68638400Y-98323400D01*
X69912200Y-98538000D02*
X69697600Y-98323400D01*
X75438000Y-99542600D02*
X74574400Y-98679000D01*
X77966600Y-99542600D02*
X75438000Y-99542600D01*
X68163400Y-98323400D02*
X68638400Y-98323400D01*
X66725800Y-99761000D02*
X68163400Y-98323400D01*
X66725800Y-101549200D02*
X66725800Y-99761000D01*
X61112400Y-95275400D02*
X61620400Y-95783400D01*
X63238400Y-95783400D02*
X61620400Y-95783400D01*
X62167800Y-93776800D02*
X61137800Y-93776800D01*
X61137800Y-93776800D02*
X61112400Y-93802200D01*
X61112400Y-93802200D02*
X61112400Y-95275400D01*
X60604398Y-91805758D02*
X60604398Y-93294198D01*
X59912200Y-88607200D02*
X60868558Y-89563558D01*
X60868558Y-89563558D02*
X60868558Y-91541598D01*
X60868558Y-91541598D02*
X60604398Y-91805758D01*
X60604398Y-93294198D02*
X61112400Y-93802200D01*
X60871000Y-82988000D02*
X58312200Y-82988000D01*
X58312200Y-82988000D02*
X57962800Y-83337400D01*
X57962800Y-86657800D02*
X59912200Y-88607200D01*
X57962800Y-83337400D02*
X57962800Y-86657800D01*
X68638400Y-97053400D02*
X69723000Y-97053400D01*
X69988400Y-96788000D02*
X70739000Y-96788000D01*
X69723000Y-97053400D02*
X69988400Y-96788000D01*
X62223600Y-90798600D02*
X62328100Y-90903100D01*
X62223600Y-88607200D02*
X62223600Y-90798600D01*
X62328100Y-90903100D02*
X64138500Y-90903100D01*
X64138500Y-90903100D02*
X64519500Y-90903100D01*
X64715076Y-90903100D02*
X65042769Y-90575407D01*
X64138500Y-90903100D02*
X64715076Y-90903100D01*
X65042769Y-90575407D02*
X65437900Y-90575407D01*
X70739000Y-96788000D02*
X70739000Y-96113600D01*
X71123010Y-95729590D02*
X71123010Y-92890810D01*
X70739000Y-96113600D02*
X71123010Y-95729590D01*
X71123010Y-92890810D02*
X70866000Y-92633800D01*
X70840600Y-92659200D02*
X66040000Y-92659200D01*
X70866000Y-92633800D02*
X70840600Y-92659200D01*
X61321000Y-85528000D02*
X60871000Y-85528000D01*
X62223600Y-86430600D02*
X61321000Y-85528000D01*
X62223600Y-88607200D02*
X62223600Y-86430600D01*
D44*
X87110900Y-105110900D02*
X87000000Y-105000000D01*
X87110900Y-107416600D02*
X87110900Y-105110900D01*
D43*
X64737000Y-106781600D02*
X63500000Y-106781600D01*
X63234600Y-107047000D02*
X62255400Y-107047000D01*
X63500000Y-106781600D02*
X63234600Y-107047000D01*
X60553600Y-107047000D02*
X60528200Y-107021600D01*
X62255400Y-107047000D02*
X60553600Y-107047000D01*
X85652400Y-105000000D02*
X84912200Y-105740200D01*
X87000000Y-105000000D02*
X85652400Y-105000000D01*
X71805800Y-102539800D02*
X71805800Y-105714800D01*
X66497201Y-102438199D02*
X70789801Y-102438199D01*
X71501000Y-102235000D02*
X71805800Y-102539800D01*
X70789801Y-102438199D02*
X70993000Y-102235000D01*
X66243200Y-104343200D02*
X66243200Y-102692200D01*
X66014600Y-104571800D02*
X66243200Y-104343200D01*
X70993000Y-102235000D02*
X71501000Y-102235000D01*
X62980600Y-104571800D02*
X66014600Y-104571800D01*
X66243200Y-102692200D02*
X66497201Y-102438199D01*
X62255400Y-105297000D02*
X62980600Y-104571800D01*
X60528200Y-108853000D02*
X60528200Y-107021600D01*
X64656400Y-88607200D02*
X64662000Y-88607200D01*
X63017400Y-90246200D02*
X64656400Y-88607200D01*
X64662000Y-88607200D02*
X66375800Y-86893400D01*
X66375800Y-86893400D02*
X67284600Y-86893400D01*
X67284600Y-86893400D02*
X68224400Y-85953600D01*
X68224400Y-85953600D02*
X68224400Y-84861400D01*
X67621000Y-84258000D02*
X66271000Y-84258000D01*
X68224400Y-84861400D02*
X67621000Y-84258000D01*
X60803600Y-106172000D02*
X60528200Y-105896600D01*
X60528200Y-105896600D02*
X60528200Y-105271600D01*
X63149200Y-106172000D02*
X60803600Y-106172000D01*
X63809600Y-105511600D02*
X63149200Y-106172000D01*
X64737000Y-105511600D02*
X63809600Y-105511600D01*
X60299600Y-90615931D02*
X60299600Y-90220800D01*
X59461400Y-104902000D02*
X59461400Y-92517690D01*
X59831000Y-105271600D02*
X59461400Y-104902000D01*
X60299600Y-91679489D02*
X60299600Y-90615931D01*
X59461400Y-92517690D02*
X60299600Y-91679489D01*
X60528200Y-105271600D02*
X59831000Y-105271600D01*
D44*
X134508000Y-103000000D02*
X133000000Y-103000000D01*
X137515600Y-106007600D02*
X134508000Y-103000000D01*
X137515600Y-120751600D02*
X137515600Y-106007600D01*
X129260600Y-129006600D02*
X137515600Y-120751600D01*
X54406800Y-129006600D02*
X129260600Y-129006600D01*
X53594000Y-128193800D02*
X54406800Y-129006600D01*
X53594000Y-123153500D02*
X53594000Y-128193800D01*
D43*
X54365347Y-122382153D02*
X54365347Y-121555053D01*
X53594000Y-123153500D02*
X54365347Y-122382153D01*
X54365347Y-121555053D02*
X55092600Y-120827800D01*
X55092600Y-115925600D02*
X55041800Y-115874800D01*
X55092600Y-120827800D02*
X55092600Y-115925600D01*
X52310000Y-114554000D02*
X51522600Y-113766600D01*
X55041800Y-114554000D02*
X52310000Y-114554000D01*
D44*
X84570900Y-113921100D02*
X84570900Y-114985800D01*
X85492000Y-113000000D02*
X84570900Y-113921100D01*
X87000000Y-113000000D02*
X85492000Y-113000000D01*
D43*
X84570900Y-115960800D02*
X83869500Y-116662200D01*
X84570900Y-114985800D02*
X84570900Y-115960800D01*
X83869500Y-116662200D02*
X80543400Y-116662200D01*
X80543400Y-116662200D02*
X79781400Y-115900200D01*
X79183200Y-115900200D02*
X76744800Y-113461800D01*
X79781400Y-115900200D02*
X79183200Y-115900200D01*
D44*
X134874000Y-111366000D02*
X134508000Y-111000000D01*
X134874000Y-119380000D02*
X134874000Y-111366000D01*
X127000000Y-127254000D02*
X134874000Y-119380000D01*
X62382400Y-126390400D02*
X63246000Y-127254000D01*
X63246000Y-127254000D02*
X127000000Y-127254000D01*
X134508000Y-111000000D02*
X133000000Y-111000000D01*
X62382400Y-123051900D02*
X62382400Y-126390400D01*
D43*
X62382400Y-122239400D02*
X63311400Y-121310400D01*
X62382400Y-123051900D02*
X62382400Y-122239400D01*
X63486010Y-119416152D02*
X62637058Y-118567200D01*
X63486010Y-121135790D02*
X63486010Y-119416152D01*
X63311400Y-121310400D02*
X63486010Y-121135790D01*
X62637058Y-118567200D02*
X61188600Y-118567200D01*
X59893200Y-117271800D02*
X59893200Y-117068600D01*
X61188600Y-118567200D02*
X59893200Y-117271800D01*
X59893200Y-114760800D02*
X59163800Y-114031400D01*
X59893200Y-115544600D02*
X59893200Y-114760800D01*
X50001200Y-103733600D02*
X50139600Y-103733600D01*
X48401000Y-105333800D02*
X50001200Y-103733600D01*
X46278800Y-111810800D02*
X46278800Y-109093000D01*
X48121600Y-112115600D02*
X46583600Y-112115600D01*
X46583600Y-112115600D02*
X46278800Y-111810800D01*
X46278800Y-109093000D02*
X46740400Y-108631400D01*
X49772600Y-113766600D02*
X48121600Y-112115600D01*
X48366000Y-108631400D02*
X49798000Y-108631400D01*
X46740400Y-108631400D02*
X48366000Y-108631400D01*
X48401000Y-108596400D02*
X48366000Y-108631400D01*
X48401000Y-105333800D02*
X48401000Y-108596400D01*
X74994800Y-113461800D02*
X74994800Y-111836200D01*
X71526400Y-108051600D02*
X71704200Y-108229400D01*
X70137000Y-108051600D02*
X71526400Y-108051600D01*
X74994800Y-111836200D02*
X73787000Y-110628400D01*
X73787000Y-110628400D02*
X73787000Y-110235990D01*
X69607400Y-108051600D02*
X70137000Y-108051600D01*
X66508600Y-111150400D02*
X69607400Y-108051600D01*
X55198000Y-109901400D02*
X54072200Y-109901400D01*
X53735000Y-109564200D02*
X53735000Y-105562400D01*
X54072200Y-109901400D02*
X53735000Y-109564200D01*
X56181600Y-114031400D02*
X55383400Y-113233200D01*
X57413800Y-114031400D02*
X56181600Y-114031400D01*
X55882472Y-112734128D02*
X55882472Y-112722728D01*
X55383400Y-113233200D02*
X55882472Y-112734128D01*
X55882472Y-112722728D02*
X56667400Y-111937800D01*
X56667400Y-111937800D02*
X56667400Y-110083600D01*
X56125400Y-109901400D02*
X55198000Y-109901400D01*
X56485200Y-109901400D02*
X56125400Y-109901400D01*
X56667400Y-110083600D02*
X56485200Y-109901400D01*
D44*
X135006000Y-87000000D02*
X135077200Y-87071200D01*
X133000000Y-87000000D02*
X135006000Y-87000000D01*
X71628000Y-125233269D02*
X71628000Y-125628400D01*
X71602600Y-125603000D02*
X71628000Y-125628400D01*
X71602600Y-123636100D02*
X71602600Y-125603000D01*
D43*
X72618600Y-119659400D02*
X68289331Y-119659400D01*
X72771000Y-119811800D02*
X72618600Y-119659400D01*
X68289331Y-119659400D02*
X68086131Y-119456200D01*
X72771000Y-122467700D02*
X72771000Y-119811800D01*
X68086131Y-119456200D02*
X67691000Y-119456200D01*
X71602600Y-123636100D02*
X72771000Y-122467700D01*
X51220400Y-101142800D02*
X50359272Y-100281672D01*
X54254400Y-101803200D02*
X53594000Y-101142800D01*
X57607200Y-111150400D02*
X57607200Y-102235000D01*
X57607200Y-102235000D02*
X57175400Y-101803200D01*
X50359272Y-100281672D02*
X49860200Y-99782600D01*
X57175400Y-101803200D02*
X54254400Y-101803200D01*
X61239399Y-114782599D02*
X57607200Y-111150400D01*
X53594000Y-101142800D02*
X51220400Y-101142800D01*
X66979801Y-114782599D02*
X61239399Y-114782599D01*
X67259200Y-114503200D02*
X66979801Y-114782599D01*
D44*
X134928800Y-95000000D02*
X134975600Y-95046800D01*
X133000000Y-95000000D02*
X134928800Y-95000000D01*
X81280000Y-122950300D02*
X81280000Y-125374422D01*
D43*
X81280000Y-122950300D02*
X81280000Y-121564400D01*
X58419989Y-101396789D02*
X57852272Y-100829072D01*
X57852272Y-100829072D02*
X57353200Y-100330000D01*
X58419989Y-110844123D02*
X58419989Y-101396789D01*
X69748400Y-113792000D02*
X69469001Y-113512601D01*
X61088467Y-113512601D02*
X58419989Y-110844123D01*
X69469001Y-113512601D02*
X61088467Y-113512601D01*
X51588600Y-98183600D02*
X51576000Y-98171000D01*
X51588600Y-99711000D02*
X51588600Y-98183600D01*
X51437600Y-98032600D02*
X51576000Y-98171000D01*
X49860200Y-98032600D02*
X51437600Y-98032600D01*
X51576000Y-98171000D02*
X51576000Y-94121000D01*
X51181000Y-93726000D02*
X49903400Y-93726000D01*
X51576000Y-94121000D02*
X51181000Y-93726000D01*
X49058800Y-93726000D02*
X49903400Y-93726000D01*
X47853600Y-92520800D02*
X49058800Y-93726000D01*
X58013600Y-90819000D02*
X54748400Y-90819000D01*
X54748400Y-90819000D02*
X53949600Y-91617800D01*
X53949600Y-91617800D02*
X53949600Y-94716600D01*
X54229000Y-94996000D02*
X55303400Y-94996000D01*
X53949600Y-94716600D02*
X54229000Y-94996000D01*
X57341800Y-94996000D02*
X57404000Y-94933800D01*
X55303400Y-94996000D02*
X57341800Y-94996000D01*
X58419989Y-97513211D02*
X58419989Y-95949789D01*
X57903072Y-95432872D02*
X57404000Y-94933800D01*
X57353200Y-98580000D02*
X58419989Y-97513211D01*
X58419989Y-95949789D02*
X57903072Y-95432872D01*
X47574200Y-108000800D02*
X47574200Y-107605669D01*
X47574200Y-107605669D02*
X47218600Y-107250069D01*
X48138400Y-109169200D02*
X47574200Y-109169200D01*
X48870600Y-109901400D02*
X48138400Y-109169200D01*
X49798000Y-109901400D02*
X48870600Y-109901400D01*
X47218600Y-107250069D02*
X47218600Y-104904600D01*
X47218600Y-104904600D02*
X48389600Y-103733600D01*
X48389600Y-103733600D02*
X47519057Y-103733600D01*
X46761421Y-101161719D02*
X47056931Y-101457229D01*
X50786581Y-89851019D02*
X48323513Y-89851019D01*
X48323513Y-89851019D02*
X46761421Y-91413111D01*
X46761421Y-91413111D02*
X46761421Y-101161719D01*
X51896200Y-88741400D02*
X50786581Y-89851019D01*
X47056931Y-101457229D02*
X47336330Y-101736628D01*
X47493676Y-103708219D02*
X47214277Y-103428820D01*
X47519057Y-103733600D02*
X47493676Y-103708219D01*
X51896200Y-86059200D02*
X51485800Y-85648800D01*
X51896200Y-88741400D02*
X51896200Y-86059200D01*
X51414400Y-85577400D02*
X51896200Y-86059200D01*
X50383400Y-85577400D02*
X51414400Y-85577400D01*
X69127400Y-106781600D02*
X70137000Y-106781600D01*
X64758600Y-111150400D02*
X69127400Y-106781600D01*
X65926400Y-88607200D02*
X66342494Y-88607200D01*
X64211200Y-90322400D02*
X65926400Y-88607200D01*
X66342494Y-88607200D02*
X67049600Y-88607200D01*
X67049600Y-88607200D02*
X67049600Y-87661800D01*
X67049600Y-87661800D02*
X68961000Y-85750400D01*
X68961000Y-85750400D02*
X68961000Y-82346800D01*
X68332200Y-81718000D02*
X66271000Y-81718000D01*
X68961000Y-82346800D02*
X68332200Y-81718000D01*
X59105800Y-110667800D02*
X59105800Y-91313000D01*
X59105800Y-91313000D02*
X59537600Y-90881200D01*
X63895000Y-112014000D02*
X60452000Y-112014000D01*
X60452000Y-112014000D02*
X59105800Y-110667800D01*
X64758600Y-111150400D02*
X63895000Y-112014000D01*
X55198000Y-111171400D02*
X53996000Y-111171400D01*
X53633400Y-111534000D02*
X53996000Y-111171400D01*
X53633400Y-113233200D02*
X53633400Y-111534000D01*
X52273200Y-109448600D02*
X52273200Y-103733600D01*
X46253381Y-100619579D02*
X46151800Y-100517998D01*
X48571000Y-88741400D02*
X48699894Y-88741400D01*
X53996000Y-111171400D02*
X52273200Y-109448600D01*
X52273200Y-103733600D02*
X51155600Y-102616000D01*
X51155600Y-102616000D02*
X47066200Y-102616000D01*
X47066200Y-102616000D02*
X46253381Y-101803181D01*
X48699894Y-88741400D02*
X49407000Y-88741400D01*
X46151800Y-91160600D02*
X48571000Y-88741400D01*
X46253381Y-101803181D02*
X46253381Y-100619579D01*
X46151800Y-100517998D02*
X46151800Y-91160600D01*
X49407000Y-88034294D02*
X48564800Y-87192094D01*
X49407000Y-88741400D02*
X49407000Y-88034294D01*
X48564800Y-87192094D02*
X48564800Y-83896200D01*
X49423600Y-83037400D02*
X50383400Y-83037400D01*
X48564800Y-83896200D02*
X49423600Y-83037400D01*
X55303400Y-96266000D02*
X54828400Y-96266000D01*
X53365401Y-89634399D02*
X53834601Y-89165199D01*
X53834601Y-89165199D02*
X54334600Y-88665200D01*
X53314600Y-94752200D02*
X53314600Y-90769442D01*
X53314600Y-90769442D02*
X53365401Y-90718641D01*
X54828400Y-96266000D02*
X53314600Y-94752200D01*
X53365401Y-90718641D02*
X53365401Y-89634399D01*
X56986200Y-96266000D02*
X57404000Y-96683800D01*
X55303400Y-96266000D02*
X56986200Y-96266000D01*
X55783400Y-84307400D02*
X54579800Y-84307400D01*
X54334600Y-84552600D02*
X54334600Y-85094000D01*
X54579800Y-84307400D02*
X54334600Y-84552600D01*
X54334600Y-88665200D02*
X54334600Y-85094000D01*
X54268542Y-90322400D02*
X53873411Y-90322400D01*
X55242800Y-90322400D02*
X54268542Y-90322400D01*
X56976200Y-88589000D02*
X55242800Y-90322400D01*
X48578800Y-94996000D02*
X47853600Y-94270800D01*
X49903400Y-94996000D02*
X48578800Y-94996000D01*
X48539402Y-90322398D02*
X52360669Y-90322398D01*
X52360669Y-90322398D02*
X52755800Y-90322398D01*
X47066232Y-91795568D02*
X48539402Y-90322398D01*
X47066232Y-93483432D02*
X47066232Y-91795568D01*
X47853600Y-94270800D02*
X47066232Y-93483432D01*
X57632602Y-85303358D02*
X57476199Y-85146955D01*
X56233400Y-81767400D02*
X55783400Y-81767400D01*
X56976200Y-88589000D02*
X57632602Y-87932598D01*
X57632602Y-87932598D02*
X57632602Y-85303358D01*
X57476199Y-85146955D02*
X57476199Y-83010199D01*
X57476199Y-83010199D02*
X56233400Y-81767400D01*
X58507600Y-69240400D02*
X58507600Y-66457800D01*
X57855200Y-65989200D02*
X56852800Y-65989200D01*
X58039000Y-65989200D02*
X57855200Y-65989200D01*
X58507600Y-66457800D02*
X58039000Y-65989200D01*
X64178200Y-64744600D02*
X64152800Y-64719200D01*
X66714400Y-64744600D02*
X64178200Y-64744600D01*
X118770400Y-49809400D02*
X120130600Y-49809400D01*
X118262400Y-50317400D02*
X118770400Y-49809400D01*
X114985800Y-52654200D02*
X116967000Y-52654200D01*
X118262400Y-51358800D02*
X118262400Y-50317400D01*
X114782600Y-52451000D02*
X114985800Y-52654200D01*
X114782600Y-49174400D02*
X114782600Y-52451000D01*
X114477800Y-48869600D02*
X114782600Y-49174400D01*
X116967000Y-52654200D02*
X118262400Y-51358800D01*
X109905800Y-45730600D02*
X110845600Y-46670400D01*
X109905800Y-45280600D02*
X109905800Y-45730600D01*
X110845600Y-46670400D02*
X110845600Y-48234600D01*
X110845600Y-48234600D02*
X111480600Y-48869600D01*
X111480600Y-48869600D02*
X114477800Y-48869600D01*
X121880600Y-49809400D02*
X121880600Y-48183800D01*
X121880600Y-48183800D02*
X124333000Y-48183800D01*
X124993400Y-48844200D02*
X128284000Y-48844200D01*
X124333000Y-48183800D02*
X124993400Y-48844200D01*
X127903000Y-48844200D02*
X127903000Y-48042800D01*
X129438400Y-46507400D02*
X129438400Y-44780200D01*
X127903000Y-48042800D02*
X129438400Y-46507400D01*
X108635800Y-50680600D02*
X108635800Y-51583000D01*
X109681602Y-52628802D02*
X111037398Y-52628802D01*
X113383128Y-50283072D02*
X113882200Y-49784000D01*
X108635800Y-51583000D02*
X109681602Y-52628802D01*
X111037398Y-52628802D02*
X113383128Y-50283072D01*
X115683000Y-48082200D02*
X115683000Y-49758600D01*
X115632200Y-49784000D02*
X116789200Y-49784000D01*
X116789200Y-49784000D02*
X117017800Y-50012600D01*
X117017800Y-50012600D02*
X117017800Y-51790600D01*
X115671600Y-53416200D02*
X115671600Y-61112400D01*
X82180448Y-70420210D02*
X78042790Y-70420210D01*
X82460810Y-70139848D02*
X82180448Y-70420210D01*
X82460810Y-64071790D02*
X82460810Y-70139848D01*
X83388200Y-63144400D02*
X82460810Y-64071790D01*
X50383400Y-81767400D02*
X52481200Y-81767400D01*
X52481200Y-81767400D02*
X53009800Y-82296000D01*
X52751000Y-84307400D02*
X50383400Y-84307400D01*
X53009800Y-84048600D02*
X52751000Y-84307400D01*
X53040000Y-83037400D02*
X53009800Y-83007200D01*
X55783400Y-83037400D02*
X53040000Y-83037400D01*
X53009800Y-83007200D02*
X53009800Y-84048600D01*
X53009800Y-82296000D02*
X53009800Y-83007200D01*
X55783400Y-83037400D02*
X56900800Y-83037400D01*
X56900800Y-83037400D02*
X57099200Y-83235800D01*
X57099200Y-83235800D02*
X57099200Y-85445600D01*
X56967400Y-85577400D02*
X55783400Y-85577400D01*
X57099200Y-85445600D02*
X56967400Y-85577400D01*
X56967400Y-85577400D02*
X57094400Y-85577400D01*
X57094400Y-85577400D02*
X57124600Y-85547200D01*
X58496200Y-84288600D02*
X58877200Y-83907600D01*
X58496200Y-85228400D02*
X58496200Y-84288600D01*
X59227600Y-84258000D02*
X58877200Y-83907600D01*
X60871000Y-84258000D02*
X59227600Y-84258000D01*
X62198400Y-84258000D02*
X60871000Y-84258000D01*
X62509400Y-83947000D02*
X62198400Y-84258000D01*
X62579400Y-82988000D02*
X62509400Y-83058000D01*
X62509400Y-83058000D02*
X62509400Y-83947000D01*
X66271000Y-85528000D02*
X64852400Y-85528000D01*
X64408200Y-85083800D02*
X64408200Y-82988000D01*
X64852400Y-85528000D02*
X64408200Y-85083800D01*
X64408200Y-82988000D02*
X62579400Y-82988000D01*
X66271000Y-82988000D02*
X64408200Y-82988000D01*
X62185400Y-81718000D02*
X60871000Y-81718000D01*
X62509400Y-82042000D02*
X62185400Y-81718000D01*
X62509400Y-83058000D02*
X62509400Y-82042000D01*
X77571600Y-70891400D02*
X77139800Y-71323200D01*
X78042790Y-70420210D02*
X77571600Y-70891400D01*
X77139800Y-71323200D02*
X77139800Y-82981800D01*
X69723000Y-83007200D02*
X69697600Y-82981800D01*
X73888600Y-83007200D02*
X69723000Y-83007200D01*
X66290200Y-83007200D02*
X66271000Y-82988000D01*
X68173600Y-83007200D02*
X66290200Y-83007200D01*
X114858800Y-46581400D02*
X114858800Y-44783000D01*
X113933000Y-47507200D02*
X114858800Y-46581400D01*
X113933000Y-48082200D02*
X113933000Y-47507200D01*
X121977400Y-45935400D02*
X121151400Y-46761400D01*
X121977400Y-44783000D02*
X121977400Y-45935400D01*
X121151400Y-46761400D02*
X120548400Y-46761400D01*
X120130600Y-47179200D02*
X120130600Y-48183800D01*
X120548400Y-46761400D02*
X120130600Y-47179200D01*
D44*
X126353900Y-74610900D02*
X123952000Y-74610900D01*
X126695200Y-67614800D02*
X127457200Y-68376800D01*
X125120400Y-67614800D02*
X126695200Y-67614800D01*
X124256800Y-66751200D02*
X125120400Y-67614800D01*
X127457200Y-73507600D02*
X126353900Y-74610900D01*
X127457200Y-68376800D02*
X127457200Y-73507600D01*
X124256800Y-64660800D02*
X124256800Y-66751200D01*
X117906800Y-66878200D02*
X118516400Y-67487800D01*
X116936200Y-66878200D02*
X117906800Y-66878200D01*
X116357400Y-66299400D02*
X116936200Y-66878200D01*
X117692500Y-74458500D02*
X116052600Y-74458500D01*
X118516400Y-73634600D02*
X117692500Y-74458500D01*
X118516400Y-67487800D02*
X118516400Y-73634600D01*
X116357400Y-65016400D02*
X116357400Y-66299400D01*
D43*
X81878500Y-73380600D02*
X81864200Y-73366300D01*
X82067400Y-73380600D02*
X82027700Y-73340900D01*
X85006200Y-73380600D02*
X82067400Y-73380600D01*
X82027700Y-73340900D02*
X78663800Y-73340900D01*
X82067400Y-73380600D02*
X81878500Y-73380600D01*
D44*
X78663800Y-73340900D02*
X80989500Y-73340900D01*
X81029200Y-73380600D02*
X85006200Y-73380600D01*
X80989500Y-73340900D02*
X81029200Y-73380600D01*
X108635800Y-65364400D02*
X108610400Y-65389800D01*
X108635800Y-64889400D02*
X108635800Y-65364400D01*
X108610400Y-65389800D02*
X108610400Y-66344800D01*
X108610400Y-66344800D02*
X107137200Y-67818000D01*
X107137200Y-67818000D02*
X105816400Y-67818000D01*
X105787800Y-74647400D02*
X108077000Y-74647400D01*
X105816400Y-67818000D02*
X104876600Y-68757800D01*
X104876600Y-73736200D02*
X105787800Y-74647400D01*
X104876600Y-68757800D02*
X104876600Y-73736200D01*
X85031600Y-80340200D02*
X83693000Y-80340200D01*
X83693000Y-80340200D02*
X82600800Y-79248000D01*
X82600800Y-79248000D02*
X80340200Y-79248000D01*
X79948100Y-79640100D02*
X78714600Y-79640100D01*
X80340200Y-79248000D02*
X79948100Y-79640100D01*
X101385700Y-74483900D02*
X100025200Y-74483900D01*
X100507800Y-66573400D02*
X102844600Y-68910200D01*
X102844600Y-73025000D02*
X101385700Y-74483900D01*
X102844600Y-68910200D02*
X102844600Y-73025000D01*
X100507800Y-64991000D02*
X100507800Y-66573400D01*
D43*
X55783400Y-77957400D02*
X54487800Y-77957400D01*
X54411800Y-77881400D02*
X54411800Y-74508000D01*
X54487800Y-77957400D02*
X54411800Y-77881400D01*
X54411800Y-74508000D02*
X57749000Y-71170800D01*
X57749000Y-71170800D02*
X68275200Y-71170800D01*
X70931200Y-68514800D02*
X70931200Y-63235000D01*
X68275200Y-71170800D02*
X70931200Y-68514800D01*
X70931200Y-60136200D02*
X70931200Y-63235000D01*
X57273999Y-75009999D02*
X56774000Y-74510000D01*
X57251600Y-78740000D02*
X57251600Y-75209400D01*
X57273999Y-75187001D02*
X57273999Y-75009999D01*
X57251600Y-75209400D02*
X57273999Y-75187001D01*
X56764200Y-79227400D02*
X57251600Y-78740000D01*
X55783400Y-79227400D02*
X56764200Y-79227400D01*
X71931200Y-63831800D02*
X71931200Y-59989300D01*
X56774000Y-74510000D02*
X59783000Y-71501000D01*
X59783000Y-71501000D02*
X68402200Y-71501000D01*
X71931200Y-67972000D02*
X71931200Y-63831800D01*
X68402200Y-71501000D02*
X71931200Y-67972000D01*
X49481000Y-79227400D02*
X49098200Y-78844600D01*
X50383400Y-79227400D02*
X49481000Y-79227400D01*
X49098200Y-75122600D02*
X49712800Y-74508000D01*
X49098200Y-78844600D02*
X49098200Y-75122600D01*
X49712800Y-74508000D02*
X53761200Y-70459600D01*
X53761200Y-70459600D02*
X68097400Y-70459600D01*
X69931200Y-68625800D02*
X69931200Y-59989300D01*
X68097400Y-70459600D02*
X69931200Y-68625800D01*
X51176200Y-77957400D02*
X52051600Y-77082000D01*
X50383400Y-77957400D02*
X51176200Y-77957400D01*
X52051600Y-77082000D02*
X52051600Y-74510000D01*
X52051600Y-74510000D02*
X55746400Y-70815200D01*
X55746400Y-70815200D02*
X68173600Y-70815200D01*
X70431200Y-68557600D02*
X70431200Y-59989300D01*
X68173600Y-70815200D02*
X70431200Y-68557600D01*
X64874200Y-77413600D02*
X64874200Y-74820600D01*
X65368600Y-77908000D02*
X64874200Y-77413600D01*
X66271000Y-77908000D02*
X65368600Y-77908000D01*
X73431200Y-67843600D02*
X73431200Y-61467800D01*
X64874200Y-74820600D02*
X67152400Y-72542400D01*
X67152400Y-72542400D02*
X68732400Y-72542400D01*
X73431200Y-61467800D02*
X73431200Y-59989300D01*
X68732400Y-72542400D02*
X73431200Y-67843600D01*
X66271000Y-79178000D02*
X67430800Y-79178000D01*
X67430800Y-79178000D02*
X67792600Y-78816200D01*
X67792600Y-75376800D02*
X67236400Y-74820600D01*
X67792600Y-78816200D02*
X67792600Y-75376800D01*
X73619300Y-68437700D02*
X67236400Y-74820600D01*
X73931200Y-68125800D02*
X73619300Y-68437700D01*
X73931200Y-59989300D02*
X73931200Y-68125800D01*
X60871000Y-77908000D02*
X61969800Y-77908000D01*
X62512000Y-77365800D02*
X62512000Y-74820600D01*
X61969800Y-77908000D02*
X62512000Y-77365800D01*
X62512000Y-74820600D02*
X65171200Y-72161400D01*
X65171200Y-72161400D02*
X68656200Y-72161400D01*
X72931200Y-67886400D02*
X72931200Y-63263600D01*
X68656200Y-72161400D02*
X72931200Y-67886400D01*
X72931200Y-59989300D02*
X72931200Y-63263600D01*
X125501400Y-68732400D02*
X125476000Y-68707000D01*
X96758489Y-65008207D02*
X96758489Y-65403338D01*
X88843700Y-54076800D02*
X96342400Y-54076800D01*
X96342400Y-54076800D02*
X96758489Y-54492889D01*
X96758489Y-54492889D02*
X96758489Y-65008207D01*
X125501400Y-70416400D02*
X125501400Y-68732400D01*
X121691400Y-70416400D02*
X121691400Y-66522600D01*
X96193179Y-65439770D02*
X96193179Y-65834901D01*
X88843700Y-54576800D02*
X95953400Y-54576800D01*
X96193179Y-54816579D02*
X96193179Y-65439770D01*
X95953400Y-54576800D02*
X96193179Y-54816579D01*
X95631000Y-55194210D02*
X95580200Y-55143410D01*
X95513590Y-55076800D02*
X88843700Y-55076800D01*
X95631000Y-55194210D02*
X95513590Y-55076800D01*
X95677767Y-65929843D02*
X95677767Y-66324974D01*
X95631000Y-55194210D02*
X95677767Y-55240977D01*
X95677767Y-55240977D02*
X95677767Y-65929843D01*
X117627400Y-70416400D02*
X117627400Y-67640200D01*
X95148400Y-66406281D02*
X95174378Y-66432259D01*
X94921400Y-55576800D02*
X95148400Y-55803800D01*
X88843700Y-55576800D02*
X94921400Y-55576800D01*
X95174378Y-66432259D02*
X95174378Y-66827390D01*
X95148400Y-55803800D02*
X95148400Y-66406281D01*
X113817400Y-70416400D02*
X113817400Y-67284600D01*
X113817400Y-67284600D02*
X113868200Y-67233800D01*
X109905800Y-67945000D02*
X109956600Y-67894200D01*
X109905800Y-70289400D02*
X109905800Y-67945000D01*
X94615000Y-67335400D02*
X94615000Y-56426000D01*
X94615000Y-56426000D02*
X94265800Y-56076800D01*
X94265800Y-56076800D02*
X88843700Y-56076800D01*
X106095800Y-68681600D02*
X106070400Y-68656200D01*
X106095800Y-70289400D02*
X106095800Y-68681600D01*
X94038116Y-67422859D02*
X94038116Y-67817990D01*
X94038116Y-56852516D02*
X94038116Y-67422859D01*
X93599000Y-56413400D02*
X94038116Y-56852516D01*
X90982800Y-56413400D02*
X93599000Y-56413400D01*
X90819400Y-56576800D02*
X90982800Y-56413400D01*
X88843700Y-56576800D02*
X90819400Y-56576800D01*
X101777800Y-70391000D02*
X101777800Y-68884800D01*
X93379570Y-67803860D02*
X93379570Y-68198991D01*
X89681200Y-57576800D02*
X90551000Y-58446600D01*
X90551000Y-59563000D02*
X93379570Y-62391570D01*
X90551000Y-58446600D02*
X90551000Y-59563000D01*
X88843700Y-57576800D02*
X89681200Y-57576800D01*
X93379570Y-62391570D02*
X93379570Y-67803860D01*
X88925400Y-60629800D02*
X88366600Y-61188600D01*
X86431200Y-60955000D02*
X86664800Y-61188600D01*
X86664800Y-61188600D02*
X88366600Y-61188600D01*
X86431200Y-59989300D02*
X86431200Y-60955000D01*
X90830400Y-60629800D02*
X88925400Y-60629800D01*
X92633801Y-62433201D02*
X90830400Y-60629800D01*
X92633801Y-68707001D02*
X92633801Y-62433201D01*
X97967800Y-70391000D02*
X97967800Y-68986400D01*
X87553800Y-61544200D02*
X86334600Y-61544200D01*
X90406200Y-72110600D02*
X91719400Y-72110600D01*
X91719400Y-72110600D02*
X91770200Y-72059800D01*
X88519000Y-62509400D02*
X87553800Y-61544200D01*
X91135200Y-65608200D02*
X88849200Y-65608200D01*
X91770200Y-66243200D02*
X91135200Y-65608200D01*
X91770200Y-72059800D02*
X91770200Y-66243200D01*
X88849200Y-65608200D02*
X88519000Y-65278000D01*
X86334600Y-61544200D02*
X85931200Y-61140800D01*
X85931200Y-61140800D02*
X85931200Y-59989300D01*
X88519000Y-65278000D02*
X88519000Y-62509400D01*
X85431200Y-61071868D02*
X85431200Y-60826800D01*
X86296866Y-61937534D02*
X85431200Y-61071868D01*
X86905734Y-61937534D02*
X86296866Y-61937534D01*
X88163400Y-63195200D02*
X86905734Y-61937534D01*
X88163400Y-69621400D02*
X88163400Y-63195200D01*
X89077800Y-70535800D02*
X88163400Y-69621400D01*
X89077800Y-75641200D02*
X89077800Y-70535800D01*
X89357200Y-75920600D02*
X89077800Y-75641200D01*
X90406200Y-75920600D02*
X89357200Y-75920600D01*
X85431200Y-60826800D02*
X85431200Y-59989300D01*
X90431600Y-82880200D02*
X89956600Y-82880200D01*
X86569624Y-62740489D02*
X85844889Y-62740489D01*
X83931200Y-60826800D02*
X83931200Y-59989300D01*
X87149911Y-63320776D02*
X86569624Y-62740489D01*
X88366600Y-76174600D02*
X88366600Y-70764400D01*
X87149911Y-69547711D02*
X87149911Y-63320776D01*
X88366600Y-70764400D02*
X87149911Y-69547711D01*
X89301000Y-77109000D02*
X88366600Y-76174600D01*
X89301000Y-82224600D02*
X89301000Y-77109000D01*
X85844889Y-62740489D02*
X83931200Y-60826800D01*
X89956600Y-82880200D02*
X89301000Y-82224600D01*
X66681200Y-46576800D02*
X66674400Y-46583600D01*
X67518700Y-46576800D02*
X66681200Y-46576800D01*
X66674400Y-46583600D02*
X64414400Y-46583600D01*
X64414400Y-46583600D02*
X63906400Y-47091600D01*
X63906400Y-47091600D02*
X63906400Y-47929800D01*
X63906400Y-47929800D02*
X62179200Y-49657000D01*
X62179200Y-49657000D02*
X61950600Y-49657000D01*
X59969400Y-52908200D02*
X58902600Y-52908200D01*
D44*
X91000000Y-114000000D02*
X91000000Y-112590000D01*
X79792500Y-77444600D02*
X78663800Y-76315900D01*
X85674200Y-77444600D02*
X79792500Y-77444600D01*
X90576400Y-87630000D02*
X90246200Y-87630000D01*
X91000000Y-88053600D02*
X90576400Y-87630000D01*
X91000000Y-90000000D02*
X91000000Y-88053600D01*
X90246200Y-87630000D02*
X89052400Y-86436200D01*
X89052400Y-84836000D02*
X88341200Y-84124800D01*
X83450100Y-84124800D02*
X85623400Y-84124800D01*
X88341200Y-84124800D02*
X85623400Y-84124800D01*
X89052400Y-86436200D02*
X89052400Y-85547200D01*
X89052400Y-85547200D02*
X89052400Y-84836000D01*
X82974650Y-83649350D02*
X82484900Y-83159600D01*
X82974650Y-83649350D02*
X83450100Y-84124800D01*
X82484900Y-83159600D02*
X80492600Y-83159600D01*
X79948100Y-82615100D02*
X78714600Y-82615100D01*
X80492600Y-83159600D02*
X79948100Y-82615100D01*
X90457000Y-81635600D02*
X90431600Y-81610200D01*
X91821000Y-81635600D02*
X90457000Y-81635600D01*
X91000000Y-111269200D02*
X91008200Y-111277400D01*
X91000000Y-110000000D02*
X91000000Y-111269200D01*
X92508000Y-76277400D02*
X90881200Y-74650600D01*
X91000000Y-86000000D02*
X91000000Y-84992000D01*
X90881200Y-74650600D02*
X90406200Y-74650600D01*
X91882200Y-83177000D02*
X92508000Y-82551200D01*
X91882200Y-84109800D02*
X91882200Y-83177000D01*
X91000000Y-84992000D02*
X91882200Y-84109800D01*
X92508000Y-82551200D02*
X92508000Y-76277400D01*
D43*
X104825800Y-43394600D02*
X104763600Y-43332400D01*
X104825800Y-45280600D02*
X104825800Y-43394600D01*
X104825800Y-46964600D02*
X104851200Y-46990000D01*
X104825800Y-45280600D02*
X104825800Y-46964600D01*
X104876600Y-48742600D02*
X101803200Y-48742600D01*
X101803200Y-48742600D02*
X101269800Y-49276000D01*
X101269800Y-49276000D02*
X101269800Y-50977800D01*
X100170800Y-52076800D02*
X88843700Y-52076800D01*
X101269800Y-50977800D02*
X100170800Y-52076800D01*
D44*
X124000000Y-77633900D02*
X123952000Y-77585900D01*
X124000000Y-81000000D02*
X124000000Y-77633900D01*
X116000000Y-77486100D02*
X116052600Y-77433500D01*
X116000000Y-81000000D02*
X116000000Y-77486100D01*
X108000000Y-77699400D02*
X108077000Y-77622400D01*
X108000000Y-81000000D02*
X108000000Y-77699400D01*
X100000000Y-77484100D02*
X100025200Y-77458900D01*
X100000000Y-81000000D02*
X100000000Y-77484100D01*
X96000000Y-76567600D02*
X96012000Y-76555600D01*
X96000000Y-81000000D02*
X96000000Y-76567600D01*
X121513600Y-76555600D02*
X121513600Y-73304400D01*
X122986800Y-71831200D02*
X122986800Y-70060800D01*
X121513600Y-73304400D02*
X122986800Y-71831200D01*
X115087400Y-70213200D02*
X115087400Y-71882000D01*
X115087400Y-71882000D02*
X114046000Y-72923400D01*
X114046000Y-72923400D02*
X114046000Y-78917800D01*
X104140000Y-78917800D02*
X104140000Y-78943200D01*
X104000000Y-79083200D02*
X104000000Y-81000000D01*
X104140000Y-78943200D02*
X104000000Y-79083200D01*
X112000000Y-72632600D02*
X112014000Y-72618600D01*
X112000000Y-81000000D02*
X112000000Y-72632600D01*
X107391200Y-70314800D02*
X107365800Y-70289400D01*
X107391200Y-72593200D02*
X107391200Y-70314800D01*
X120000000Y-77683600D02*
X119989600Y-77673200D01*
X120000000Y-81000000D02*
X120000000Y-77683600D01*
X97840800Y-77673200D02*
X97840800Y-73812400D01*
X99237800Y-72415400D02*
X99237800Y-70391000D01*
X97840800Y-73812400D02*
X99237800Y-72415400D01*
D43*
X104825800Y-52857400D02*
X104825800Y-50680600D01*
X104106400Y-53576800D02*
X104825800Y-52857400D01*
X88942600Y-53576800D02*
X104106400Y-53576800D01*
X103555800Y-52451000D02*
X103555800Y-50680600D01*
X102930000Y-53076800D02*
X103555800Y-52451000D01*
X88843700Y-53076800D02*
X102930000Y-53076800D01*
X100026400Y-52576800D02*
X101956800Y-52576800D01*
X100128000Y-52576800D02*
X100026400Y-52576800D01*
X100026400Y-52576800D02*
X88843700Y-52576800D01*
X102285800Y-52247800D02*
X102285800Y-50680600D01*
X101956800Y-52576800D02*
X102285800Y-52247800D01*
D44*
X108000000Y-119000000D02*
X112000000Y-119000000D01*
X120000000Y-119500000D02*
X120015000Y-119515000D01*
X120000000Y-119000000D02*
X120000000Y-119500000D01*
X120015000Y-119515000D02*
X120015000Y-121056400D01*
X120015000Y-121056400D02*
X119049800Y-122021600D01*
X119049800Y-122021600D02*
X100990400Y-122021600D01*
X100000000Y-121031200D02*
X100000000Y-119000000D01*
X100990400Y-122021600D02*
X100000000Y-121031200D01*
X96000000Y-121297000D02*
X96000000Y-119000000D01*
X97842200Y-123139200D02*
X96000000Y-121297000D01*
X121970800Y-123139200D02*
X97842200Y-123139200D01*
X124000000Y-121110000D02*
X121970800Y-123139200D01*
X124000000Y-119000000D02*
X124000000Y-121110000D01*
X116000000Y-120508000D02*
X116000000Y-119000000D01*
X115453600Y-121054400D02*
X116000000Y-120508000D01*
X104000000Y-120508000D02*
X104546400Y-121054400D01*
X104546400Y-121054400D02*
X115453600Y-121054400D01*
X104000000Y-119000000D02*
X104000000Y-120508000D01*
X129000000Y-90000000D02*
X129000000Y-94000000D01*
X130508000Y-114000000D02*
X131013200Y-113494800D01*
X129000000Y-114000000D02*
X130508000Y-114000000D01*
X131013200Y-113494800D02*
X131013200Y-102412800D01*
X130600400Y-102000000D02*
X129000000Y-102000000D01*
X131013200Y-102412800D02*
X130600400Y-102000000D01*
X129000000Y-106000000D02*
X129000000Y-110000000D01*
X131114800Y-97393200D02*
X130508000Y-98000000D01*
X130508000Y-98000000D02*
X129000000Y-98000000D01*
X131114800Y-86606800D02*
X131114800Y-97393200D01*
X130508000Y-86000000D02*
X131114800Y-86606800D01*
X129000000Y-86000000D02*
X130508000Y-86000000D01*
D43*
X84931200Y-60826800D02*
X84931200Y-59989300D01*
X86271833Y-62343567D02*
X84931200Y-61002935D01*
X87833200Y-63474600D02*
X86702167Y-62343567D01*
X86702167Y-62343567D02*
X86271833Y-62343567D01*
X87833200Y-69773800D02*
X87833200Y-63474600D01*
X88722200Y-70662800D02*
X87833200Y-69773800D01*
X88722200Y-75971400D02*
X88722200Y-70662800D01*
X90431600Y-77680800D02*
X88722200Y-75971400D01*
X90431600Y-79070200D02*
X90431600Y-77680800D01*
X84931200Y-61002935D02*
X84931200Y-60826800D01*
X60871000Y-79178000D02*
X59670800Y-79178000D01*
X59670800Y-79178000D02*
X59436000Y-78943200D01*
X59436000Y-75534400D02*
X60149800Y-74820600D01*
X59436000Y-78943200D02*
X59436000Y-75534400D01*
X72431200Y-60826800D02*
X72431200Y-59989300D01*
X72431200Y-67929200D02*
X72431200Y-60826800D01*
X68529200Y-71831200D02*
X72431200Y-67929200D01*
X63139200Y-71831200D02*
X68529200Y-71831200D01*
X60149800Y-74820600D02*
X63139200Y-71831200D01*
X89794400Y-48076800D02*
X91186000Y-46685200D01*
X91186000Y-46685200D02*
X92532200Y-46685200D01*
X88843700Y-48076800D02*
X89794400Y-48076800D01*
X93294200Y-46685200D02*
X96774000Y-46685200D01*
X93294200Y-46685200D02*
X92532200Y-46685200D01*
X96774000Y-46685200D02*
X97663000Y-46685200D01*
X97663000Y-46685200D02*
X97739200Y-46609000D01*
X98323400Y-43778200D02*
X98972400Y-43129200D01*
X98323400Y-45008800D02*
X98323400Y-43778200D01*
D46*
X52160500Y-37795200D02*
X52160500Y-36104500D01*
X52160500Y-36104500D02*
X52197000Y-36068000D01*
X61304500Y-37719000D02*
X61304500Y-36231500D01*
X61304500Y-36231500D02*
X61468000Y-36068000D01*
X53086000Y-44974000D02*
X54356000Y-43704000D01*
X53086000Y-46990000D02*
X53086000Y-44974000D01*
X54356000Y-43704000D02*
X54356000Y-38354000D01*
X53797200Y-37795200D02*
X52160500Y-37795200D01*
X54356000Y-38354000D02*
X53797200Y-37795200D01*
X125501400Y-38873100D02*
X131303700Y-38873100D01*
X134518400Y-42087800D02*
X134518400Y-44780200D01*
X131303700Y-38873100D02*
X134518400Y-42087800D01*
D47*
X134518400Y-49245500D02*
X134518400Y-44780200D01*
D46*
X62687200Y-37719000D02*
X61304500Y-37719000D01*
X62814200Y-44302600D02*
X62814200Y-37846000D01*
X62244000Y-44872800D02*
X62814200Y-44302600D01*
X62814200Y-37846000D02*
X62687200Y-37719000D01*
X62244000Y-46888800D02*
X62244000Y-44872800D01*
D43*
X56173400Y-53136800D02*
X56286500Y-53136800D01*
X54598600Y-54711600D02*
X56173400Y-53136800D01*
X69519800Y-78583400D02*
X69519800Y-77456000D01*
X69519800Y-79120900D02*
X69519800Y-78583400D01*
X71196200Y-79120900D02*
X71196200Y-77481400D01*
X72847200Y-77481400D02*
X72847200Y-79120900D01*
X70931200Y-38664300D02*
X70931200Y-37149200D01*
X70931200Y-37149200D02*
X70510400Y-36728400D01*
X65684400Y-36728400D02*
X64566800Y-37846000D01*
X70510400Y-36728400D02*
X65684400Y-36728400D01*
X70431200Y-38664300D02*
X70431200Y-37462000D01*
X70431200Y-37462000D02*
X70129400Y-37160200D01*
X67462400Y-37160200D02*
X66751200Y-37871400D01*
X70129400Y-37160200D02*
X67462400Y-37160200D01*
X88188800Y-37668200D02*
X89306400Y-37668200D01*
X87858600Y-37338000D02*
X88188800Y-37668200D01*
X86766400Y-37338000D02*
X87858600Y-37338000D01*
X86431200Y-37673200D02*
X86766400Y-37338000D01*
X86431200Y-38664300D02*
X86431200Y-37673200D01*
X91080306Y-36728400D02*
X91338400Y-36986494D01*
X86766400Y-36728400D02*
X91080306Y-36728400D01*
X91338400Y-36986494D02*
X91338400Y-37693600D01*
X85931200Y-37563600D02*
X86766400Y-36728400D01*
X85931200Y-38664300D02*
X85931200Y-37563600D01*
X85431200Y-38664300D02*
X85431200Y-37504800D01*
X85431200Y-37504800D02*
X86664800Y-36271200D01*
X86664800Y-36271200D02*
X92964000Y-36271200D01*
X93395800Y-36703000D02*
X93395800Y-37668200D01*
X92964000Y-36271200D02*
X93395800Y-36703000D01*
X86931200Y-38664300D02*
X88056300Y-38664300D01*
X89193800Y-39801800D02*
X91338400Y-39801800D01*
X88056300Y-38664300D02*
X89193800Y-39801800D01*
X57099200Y-54711600D02*
X56348600Y-54711600D01*
X58902600Y-52908200D02*
X57099200Y-54711600D01*
X74431200Y-59989300D02*
X74431200Y-68367600D01*
X69519800Y-73279000D02*
X69519800Y-75706000D01*
X74431200Y-68367600D02*
X69519800Y-73279000D01*
X74931200Y-59989300D02*
X74931200Y-68604200D01*
X71196200Y-72339200D02*
X71196200Y-75731400D01*
X74931200Y-68604200D02*
X71196200Y-72339200D01*
X72847200Y-71196200D02*
X72847200Y-75106400D01*
X75431200Y-68612200D02*
X72847200Y-71196200D01*
X75431200Y-59989300D02*
X75431200Y-68612200D01*
X72847200Y-75106400D02*
X72847200Y-75731400D01*
X93421200Y-40589200D02*
X93421200Y-39801800D01*
X93268800Y-40741600D02*
X93421200Y-40589200D01*
X90601800Y-40741600D02*
X93268800Y-40741600D01*
X90437000Y-40576800D02*
X90601800Y-40741600D01*
X88843700Y-40576800D02*
X90437000Y-40576800D01*
X88843700Y-43076800D02*
X90425600Y-43076800D01*
X90425600Y-43076800D02*
X90957400Y-42545000D01*
X90957400Y-42545000D02*
X94589600Y-42545000D01*
X94792800Y-42748200D02*
X94792800Y-43738800D01*
X94589600Y-42545000D02*
X94792800Y-42748200D01*
X88843700Y-43576800D02*
X90382800Y-43576800D01*
X90382800Y-43576800D02*
X90982800Y-42976800D01*
X90982800Y-42976800D02*
X93040200Y-42976800D01*
X93040200Y-42976800D02*
X93218000Y-43154600D01*
X93218000Y-43154600D02*
X93218000Y-44551600D01*
X93218000Y-44551600D02*
X93827600Y-45161200D01*
X93827600Y-45161200D02*
X96799400Y-45161200D01*
X96977200Y-44983400D02*
X96977200Y-43713400D01*
X96799400Y-45161200D02*
X96977200Y-44983400D01*
X79132400Y-104684800D02*
X79146400Y-104698800D01*
X77292200Y-104684800D02*
X79132400Y-104684800D01*
X83235200Y-102793800D02*
X83225000Y-102783600D01*
X84505800Y-102793800D02*
X83235200Y-102793800D01*
X77611600Y-107431800D02*
X77611600Y-105983400D01*
X77292200Y-105664000D02*
X77292200Y-104684800D01*
X77611600Y-105983400D02*
X77292200Y-105664000D01*
X74991600Y-107431800D02*
X74991600Y-106110400D01*
X83316400Y-104775000D02*
X83225000Y-104683600D01*
X84531200Y-104775000D02*
X83316400Y-104775000D01*
X74991600Y-106110400D02*
X74991600Y-106084990D01*
X75615801Y-105460789D02*
X75895200Y-105181390D01*
X74991600Y-106084990D02*
X75615801Y-105460789D01*
X82986200Y-87122000D02*
X82971000Y-87137200D01*
X84277200Y-87122000D02*
X82986200Y-87122000D01*
X84277200Y-86320600D02*
X83453000Y-85496400D01*
X84277200Y-87122000D02*
X84277200Y-86320600D01*
X77927200Y-87299800D02*
X77927200Y-87884000D01*
X77840200Y-87971000D02*
X77840200Y-90540800D01*
X77927200Y-87884000D02*
X77840200Y-87971000D01*
X83362200Y-95097600D02*
X83326600Y-95062000D01*
X84658200Y-95097600D02*
X83362200Y-95097600D01*
X77825600Y-95859600D02*
X77825600Y-94919800D01*
X77585600Y-96099600D02*
X77825600Y-95859600D01*
X76428600Y-96099600D02*
X77585600Y-96099600D01*
X77840200Y-92918200D02*
X78602600Y-93680600D01*
X77840200Y-92440800D02*
X77840200Y-92918200D01*
X78602600Y-94142800D02*
X78104999Y-94640401D01*
X78602600Y-93680600D02*
X78602600Y-94142800D01*
X78104999Y-94640401D02*
X77825600Y-94919800D01*
X83072600Y-110657600D02*
X84541400Y-110657600D01*
X84541400Y-110657600D02*
X84785200Y-110413800D01*
X79832200Y-108280200D02*
X80328800Y-108280200D01*
X78994000Y-109118400D02*
X79832200Y-108280200D01*
X78780600Y-109331800D02*
X78994000Y-109118400D01*
X77611600Y-109331800D02*
X78780600Y-109331800D01*
X50618400Y-118069400D02*
X50557400Y-118008400D01*
X53706400Y-118069400D02*
X50618400Y-118069400D01*
X56703600Y-122412800D02*
X57317600Y-122412800D01*
X57317600Y-122412800D02*
X57886600Y-121843800D01*
X57886600Y-121843800D02*
X57886600Y-119278400D01*
X57886600Y-119278400D02*
X57505600Y-118897400D01*
X54509000Y-118872000D02*
X53706400Y-118069400D01*
X54533800Y-118872000D02*
X54509000Y-118872000D01*
X50643800Y-116169400D02*
X50633600Y-116179600D01*
X52034400Y-116169400D02*
X50643800Y-116169400D01*
X53706400Y-116169400D02*
X52034400Y-116169400D01*
X49961800Y-118934069D02*
X49682400Y-118654669D01*
X49961800Y-119329200D02*
X49961800Y-118934069D01*
X49682400Y-117029200D02*
X50557400Y-116154200D01*
X49682400Y-118654669D02*
X49682400Y-117029200D01*
X48067600Y-123302400D02*
X48285400Y-123520200D01*
X48067600Y-122463600D02*
X48067600Y-123302400D01*
X74690000Y-116332000D02*
X73914000Y-116332000D01*
X73543200Y-116474200D02*
X73685400Y-116332000D01*
X73685400Y-116332000D02*
X73914000Y-116332000D01*
X73319600Y-117845800D02*
X73329800Y-117856000D01*
X73319600Y-116474200D02*
X73319600Y-117845800D01*
X72049000Y-116474200D02*
X73319600Y-116474200D01*
X73319600Y-116474200D02*
X73543200Y-116474200D01*
X73329800Y-119126000D02*
X73329800Y-121970800D01*
X73771800Y-122412800D02*
X75459600Y-122412800D01*
X73329800Y-121970800D02*
X73771800Y-122412800D01*
X64170600Y-122463600D02*
X63804800Y-122097800D01*
X65593600Y-122463600D02*
X64170600Y-122463600D01*
X63804800Y-119735600D02*
X64084200Y-119456200D01*
X63804800Y-122097800D02*
X63804800Y-119735600D01*
X64084200Y-119456200D02*
X66939156Y-119456200D01*
X66939156Y-119456200D02*
X67447158Y-118948198D01*
X72049000Y-118374200D02*
X73314600Y-118374200D01*
X73634600Y-118694200D02*
X74715400Y-118694200D01*
X73314600Y-118374200D02*
X73634600Y-118694200D01*
X72049000Y-118374200D02*
X71160600Y-118374200D01*
X71160600Y-118374200D02*
X70383400Y-119151400D01*
X68326000Y-119151400D02*
X68122798Y-118948198D01*
X70383400Y-119151400D02*
X68326000Y-119151400D01*
X67447158Y-118948198D02*
X68122798Y-118948198D01*
X83362200Y-96926400D02*
X83326600Y-96962000D01*
X84709000Y-96926400D02*
X83362200Y-96926400D01*
X75220200Y-92440800D02*
X74457800Y-92440800D01*
X78308200Y-97104200D02*
X75158600Y-97104200D01*
X75158600Y-97104200D02*
X74244200Y-96189800D01*
X74244200Y-92227200D02*
X74244200Y-92075000D01*
X74284800Y-92440800D02*
X74244200Y-92481400D01*
X74244200Y-92481400D02*
X74244200Y-92075000D01*
X75220200Y-92440800D02*
X74284800Y-92440800D01*
X74244200Y-96189800D02*
X74244200Y-92481400D01*
X84292400Y-89037200D02*
X84302600Y-89027000D01*
X82971000Y-89037200D02*
X84292400Y-89037200D01*
X84368600Y-112557600D02*
X84378800Y-112547400D01*
X83072600Y-112557600D02*
X84368600Y-112557600D01*
X74991600Y-109809200D02*
X74991600Y-109331800D01*
X75418400Y-110236000D02*
X74991600Y-109809200D01*
X76377800Y-110236000D02*
X75418400Y-110236000D01*
X56326400Y-115559200D02*
X56326400Y-116169400D01*
X55981600Y-115214400D02*
X56326400Y-115559200D01*
X47752000Y-115214400D02*
X55981600Y-115214400D01*
X46837600Y-116128800D02*
X47752000Y-115214400D01*
X47305200Y-120563600D02*
X46837600Y-120096000D01*
X46837600Y-120096000D02*
X46837600Y-116128800D01*
X48067600Y-120563600D02*
X47305200Y-120563600D01*
X56703600Y-120512800D02*
X56703600Y-119340000D01*
X56326400Y-118962800D02*
X56326400Y-118069400D01*
X56703600Y-119340000D02*
X56326400Y-118962800D01*
X72669400Y-106019600D02*
X72669400Y-105816400D01*
X72669400Y-113842067D02*
X72669400Y-106019600D01*
X67436266Y-115544600D02*
X68299865Y-114681001D01*
X62611000Y-115544600D02*
X67436266Y-115544600D01*
X71830466Y-114681001D02*
X72669400Y-113842067D01*
X61595000Y-116560600D02*
X62611000Y-115544600D01*
X68299865Y-114681001D02*
X71830466Y-114681001D01*
X58089800Y-117119400D02*
X58648600Y-116560600D01*
X58648600Y-116560600D02*
X61595000Y-116560600D01*
X58089800Y-117551200D02*
X58089800Y-117119400D01*
X57571600Y-118069400D02*
X58089800Y-117551200D01*
X56326400Y-118069400D02*
X57571600Y-118069400D01*
X64475400Y-120563600D02*
X64465200Y-120573800D01*
X65593600Y-120563600D02*
X64475400Y-120563600D01*
X64465200Y-118948200D02*
X67005200Y-118948200D01*
X67005200Y-118948200D02*
X67579200Y-118374200D01*
X67579200Y-118374200D02*
X67828200Y-118374200D01*
X67828200Y-118374200D02*
X69429000Y-118374200D01*
X72974200Y-106070400D02*
X72974200Y-105918000D01*
X68402200Y-115011200D02*
X71983600Y-115011200D01*
X72974200Y-114020600D02*
X72974200Y-106070400D01*
X67828200Y-118374200D02*
X67767198Y-118313198D01*
X67767198Y-118313198D02*
X67767198Y-115646202D01*
X67767198Y-115646202D02*
X68402200Y-115011200D01*
X71983600Y-115011200D02*
X72974200Y-114020600D01*
X72974200Y-90017600D02*
X72974200Y-89941400D01*
X69429000Y-115584600D02*
X69429000Y-116474200D01*
X69519800Y-115493800D02*
X69429000Y-115584600D01*
X75590400Y-115900200D02*
X75184000Y-115493800D01*
X75459600Y-120512800D02*
X75459600Y-119561600D01*
X75590400Y-119430800D02*
X75590400Y-115900200D01*
X75459600Y-119561600D02*
X75590400Y-119430800D01*
X75184000Y-115493800D02*
X73279000Y-115493800D01*
X73279000Y-115493800D02*
X69519800Y-115493800D01*
X60723123Y-63084523D02*
X60366713Y-63084523D01*
X63627800Y-65989200D02*
X60723123Y-63084523D01*
X64152800Y-65989200D02*
X63627800Y-65989200D01*
X60604400Y-57708800D02*
X62255400Y-59359800D01*
X62255400Y-59359800D02*
X62255400Y-61290200D01*
X62255400Y-61290200D02*
X61442600Y-62103000D01*
X61442600Y-62103000D02*
X59664600Y-62103000D01*
X58318400Y-63449200D02*
X56852800Y-63449200D01*
X59664600Y-62103000D02*
X58318400Y-63449200D01*
X64148000Y-55576800D02*
X63384400Y-54813200D01*
X67518700Y-55576800D02*
X64148000Y-55576800D01*
X67518700Y-57076800D02*
X66087800Y-57076800D01*
X65848200Y-57316400D02*
X63474600Y-57316400D01*
X66087800Y-57076800D02*
X65848200Y-57316400D01*
X88843700Y-48576800D02*
X90208800Y-48576800D01*
X90500200Y-48285400D02*
X90500200Y-48209200D01*
X90208800Y-48576800D02*
X90500200Y-48285400D01*
X93675200Y-49123600D02*
X93675200Y-49911000D01*
X93710800Y-49946600D02*
X94727400Y-49946600D01*
X93675200Y-49911000D02*
X93710800Y-49946600D01*
X80238600Y-67284600D02*
X80238600Y-65760600D01*
X80238600Y-65760600D02*
X80213200Y-65786000D01*
X77050900Y-70472300D02*
X76631800Y-70891400D01*
X77050900Y-70472300D02*
X80238600Y-67284600D01*
X76631800Y-70891400D02*
X76631800Y-84759800D01*
X76657200Y-84785200D02*
X76657200Y-89001600D01*
X76631800Y-84759800D02*
X76657200Y-84785200D01*
X75967600Y-89001600D02*
X75220200Y-89749000D01*
X76657200Y-89001600D02*
X75967600Y-89001600D01*
X75220200Y-90540800D02*
X75220200Y-89749000D01*
X82473822Y-63525378D02*
X80238600Y-65760600D01*
X82431200Y-59989300D02*
X82431200Y-61400000D01*
X82473822Y-61442622D02*
X82473822Y-63525378D01*
X82431200Y-61400000D02*
X82473822Y-61442622D01*
X81931200Y-59989300D02*
X81931200Y-61637333D01*
X82169011Y-61875144D02*
X82169011Y-63372989D01*
X82169011Y-63372989D02*
X79857600Y-65684400D01*
X81931200Y-61637333D02*
X82169011Y-61875144D01*
X79857600Y-65684400D02*
X79857600Y-67233800D01*
X79857600Y-67233800D02*
X76327000Y-70764400D01*
X76327000Y-70764400D02*
X76327000Y-88163400D01*
X76327000Y-88163400D02*
X74244200Y-90246200D01*
X74244200Y-90246200D02*
X74244200Y-92075000D01*
X73939391Y-90119943D02*
X73939391Y-90144600D01*
X73939390Y-90119944D02*
X73939390Y-91948744D01*
X74854167Y-89205167D02*
X73939391Y-90119943D01*
X73939390Y-91948744D02*
X73939390Y-92405200D01*
X74854167Y-89205167D02*
X73939390Y-90119944D01*
X73939400Y-105058200D02*
X73939400Y-90144600D01*
X74991600Y-106110400D02*
X73939400Y-105058200D01*
X79552790Y-67081410D02*
X75971400Y-70662800D01*
X79552790Y-65558144D02*
X79552790Y-67081410D01*
X79641700Y-65469234D02*
X79552790Y-65558144D01*
X81864200Y-62001400D02*
X81864200Y-63246000D01*
X79641700Y-65468500D02*
X79641700Y-65469234D01*
X75971400Y-70662800D02*
X75971400Y-88087934D01*
X81864200Y-63246000D02*
X79641700Y-65468500D01*
X75971400Y-88087934D02*
X74854167Y-89205167D01*
X81431200Y-61568400D02*
X81864200Y-62001400D01*
X81431200Y-59989300D02*
X81431200Y-61568400D01*
X74229200Y-109331800D02*
X74991600Y-109331800D01*
X73583833Y-108686433D02*
X74229200Y-109331800D01*
X76479400Y-69723000D02*
X76479400Y-69723734D01*
X79247980Y-66954420D02*
X76479400Y-69723000D01*
X73583833Y-90044435D02*
X73583833Y-108686433D01*
X76479400Y-69723734D02*
X75666590Y-70536544D01*
X79476600Y-65202534D02*
X79247980Y-65431154D01*
X79247980Y-65431154D02*
X79247980Y-66954420D01*
X80111600Y-64566800D02*
X79476600Y-65201800D01*
X79476600Y-65201800D02*
X79476600Y-65202534D01*
X75666590Y-87961678D02*
X73583833Y-90044435D01*
X75666590Y-70536544D02*
X75666590Y-87961678D01*
X80111600Y-61646400D02*
X80111600Y-64566800D01*
X80931200Y-59989300D02*
X80931200Y-61207200D01*
X80708200Y-61430200D02*
X80327800Y-61430200D01*
X80931200Y-61207200D02*
X80708200Y-61430200D01*
X80327800Y-61430200D02*
X80111600Y-61646400D01*
X72669400Y-89662000D02*
X72669400Y-106019600D01*
X76931200Y-61549600D02*
X76631800Y-61849000D01*
X74726800Y-70182402D02*
X74726800Y-87604600D01*
X74726800Y-87604600D02*
X72669400Y-89662000D01*
X76631800Y-61849000D02*
X76631800Y-68277402D01*
X76631800Y-68277402D02*
X74726800Y-70182402D01*
X76931200Y-59989300D02*
X76931200Y-61549600D01*
X76327000Y-68151136D02*
X76327000Y-61722000D01*
X74421990Y-70056146D02*
X76327000Y-68151136D01*
X56326400Y-116169400D02*
X61376600Y-116169400D01*
X71704210Y-114376190D02*
X72364590Y-113715810D01*
X66701134Y-115189000D02*
X66726543Y-115214409D01*
X67335391Y-115214409D02*
X68173610Y-114376190D01*
X66726543Y-115214409D02*
X67335391Y-115214409D01*
X72364591Y-89535743D02*
X74421990Y-87478344D01*
X72364590Y-113715810D02*
X72364591Y-89535743D01*
X68173610Y-114376190D02*
X71704210Y-114376190D01*
X62357000Y-115189000D02*
X66701134Y-115189000D01*
X74421990Y-87478344D02*
X74421990Y-70056146D01*
X61376600Y-116169400D02*
X62357000Y-115189000D01*
X76431201Y-59944000D02*
X76431201Y-61089601D01*
X76431201Y-61089601D02*
X76530200Y-61188600D01*
X76530200Y-61518800D02*
X76327000Y-61722000D01*
X76530200Y-61188600D02*
X76530200Y-61518800D01*
X73279000Y-90297000D02*
X73279000Y-115493800D01*
X78431200Y-67340134D02*
X75336400Y-70434934D01*
X73279000Y-89918202D02*
X73279000Y-90297000D01*
X75336400Y-87860802D02*
X73279000Y-89918202D01*
X75336400Y-70434934D02*
X75336400Y-87860802D01*
X78431200Y-59989300D02*
X78431200Y-67340134D01*
X72974200Y-106070400D02*
X72974200Y-90627200D01*
X72974200Y-90627200D02*
X72974200Y-90017600D01*
X75031600Y-87731600D02*
X72974200Y-89789000D01*
X78105000Y-67235268D02*
X75031600Y-70308668D01*
X78105000Y-61468000D02*
X78105000Y-67235268D01*
X72974200Y-89789000D02*
X72974200Y-90627200D01*
X77931200Y-61294200D02*
X78105000Y-61468000D01*
X75031600Y-70308668D02*
X75031600Y-87731600D01*
X77931200Y-59989300D02*
X77931200Y-61294200D01*
X86931200Y-59944000D02*
X89331800Y-59944000D01*
X113207800Y-59182100D02*
X113360200Y-59029700D01*
X113207800Y-60274200D02*
X113207800Y-59182100D01*
G04 #@! TA.AperFunction,Conductor*
G36*
X86423179Y-40769417D02*
G01*
X86483608Y-40781430D01*
X86491414Y-40784662D01*
X86496645Y-40784754D01*
X86528996Y-40800219D01*
X86569716Y-40827408D01*
X86604475Y-40862137D01*
X86631695Y-40902828D01*
X86650527Y-40948211D01*
X86662589Y-41008613D01*
X86665029Y-41033178D01*
X86667218Y-43561797D01*
X86671167Y-48128474D01*
X86651224Y-48196612D01*
X86640555Y-48209866D01*
X86640920Y-48210165D01*
X86636996Y-48214945D01*
X86550771Y-48343991D01*
X86491380Y-48487374D01*
X86491379Y-48487377D01*
X86461100Y-48639595D01*
X86461100Y-48794804D01*
X86491379Y-48947022D01*
X86491380Y-48947025D01*
X86545749Y-49078285D01*
X86553338Y-49148875D01*
X86534110Y-49196498D01*
X86529372Y-49203589D01*
X86469980Y-49346974D01*
X86469979Y-49346977D01*
X86439700Y-49499195D01*
X86439700Y-49654404D01*
X86461116Y-49762065D01*
X86469979Y-49806622D01*
X86529372Y-49950010D01*
X86615598Y-50079057D01*
X86615602Y-50079061D01*
X86636045Y-50099504D01*
X86670071Y-50161816D01*
X86672950Y-50188490D01*
X86677269Y-55181562D01*
X86674867Y-55206158D01*
X86664237Y-55259812D01*
X86631377Y-55322747D01*
X86569709Y-55357926D01*
X86520930Y-55359774D01*
X86449131Y-55348402D01*
X86434591Y-55346100D01*
X82265333Y-55346100D01*
X82234211Y-55336961D01*
X82202683Y-55329420D01*
X82200390Y-55327031D01*
X82197212Y-55326098D01*
X82175973Y-55301587D01*
X82153525Y-55278195D01*
X82152050Y-55273978D01*
X82150719Y-55272442D01*
X82141687Y-55244342D01*
X82134092Y-55205603D01*
X82131739Y-55180966D01*
X82147204Y-50252648D01*
X82167418Y-50184594D01*
X82184107Y-50163952D01*
X82226406Y-50121653D01*
X82269002Y-50079057D01*
X82355228Y-49950010D01*
X82414621Y-49806622D01*
X82444900Y-49654401D01*
X82444900Y-49499199D01*
X82414621Y-49346978D01*
X82355228Y-49203590D01*
X82303453Y-49126103D01*
X82282239Y-49058352D01*
X82291810Y-49007885D01*
X82317021Y-48947022D01*
X82347300Y-48794801D01*
X82347300Y-48639599D01*
X82317021Y-48487378D01*
X82257628Y-48343990D01*
X82175035Y-48220381D01*
X82153821Y-48152629D01*
X82153802Y-48149985D01*
X82168200Y-43561798D01*
X82168200Y-43561797D01*
X82169000Y-43307000D01*
X81914202Y-43307000D01*
X74917011Y-43307000D01*
X74892429Y-43304579D01*
X74831978Y-43292554D01*
X74786559Y-43273741D01*
X74745831Y-43246527D01*
X74711072Y-43211768D01*
X74683857Y-43171037D01*
X74665045Y-43125619D01*
X74653021Y-43065168D01*
X74650600Y-43040588D01*
X74650600Y-42444234D01*
X74660192Y-42396015D01*
X74671618Y-42368430D01*
X74671618Y-42368428D01*
X74671621Y-42368422D01*
X74701900Y-42216201D01*
X74701900Y-42060999D01*
X74671621Y-41908778D01*
X74660191Y-41881183D01*
X74650600Y-41832965D01*
X74650600Y-41033411D01*
X74653021Y-41008831D01*
X74665045Y-40948380D01*
X74683856Y-40902963D01*
X74711074Y-40862228D01*
X74745828Y-40827474D01*
X74786563Y-40800256D01*
X74831978Y-40781445D01*
X74855696Y-40776727D01*
X74892431Y-40769421D01*
X74917011Y-40767000D01*
X86398619Y-40767000D01*
X86423179Y-40769417D01*
G37*
G04 #@! TD.AperFunction*
M02*
