M48
; DRILL file KiCad 10.0.4 date 2026-06-28T12:07:49
; FORMAT={-:-/ absolute / metric / decimal}
; #@! TF.CreationDate,2026-06-28T12:07:49+09:00
; #@! TF.GenerationSoftware,Kicad,Pcbnew,10.0.4
; #@! TF.FileFunction,Plated,1,2,PTH
FMAT,2
METRIC
; #@! TA.AperFunction,Plated,PTH,ViaDrill
T1C0.254
; #@! TA.AperFunction,Plated,PTH,ComponentDrill
T2C0.500
; #@! TA.AperFunction,Plated,PTH,ComponentDrill
T3C1.000
; #@! TA.AperFunction,Plated,PTH,ComponentDrill
T4C1.100
%
G90
G05
T1
X45.745Y-100.863
X45.923Y-69.926
X45.938Y-52.719
X46.711Y-50.013
X47.214Y-103.429
X47.295Y-114.148
X47.336Y-101.737
X47.346Y-128.067
X47.371Y-124.13
X47.498Y-100.863
X47.523Y-38.964
X47.574Y-108.001
X47.574Y-109.169
X47.879Y-99.39
X47.93Y-83.414
X48.285Y-123.52
X48.424Y-111.241
X48.514Y-45.136
X48.768Y-96.266
X48.965Y-80.511
X49.784Y-123.698
X49.962Y-119.329
X50.114Y-106.324
X50.597Y-112.7
X51.867Y-122.525
X51.968Y-121.514
X52.197Y-36.068
X52.324Y-66.548
X52.324Y-68.732
X52.756Y-90.322
X52.832Y-127.279
X53.34Y-98.527
X53.492Y-52.705
X53.873Y-90.322
X53.95Y-80.518
X54.458Y-57.404
X54.508Y-127.305
X54.534Y-118.872
X54.874Y-62.05
X55.042Y-114.554
X55.042Y-115.875
X55.143Y-58.039
X55.372Y-121.459
X55.477Y-61.446
X55.753Y-57.15
X55.753Y-60.452
X55.931Y-46.863
X56.667Y-105.562
X56.667Y-107.391
X56.693Y-37.719
X56.845Y-92.481
X57.023Y-102.895
X57.125Y-85.547
X57.506Y-118.897
X57.582Y-117.094
X57.633Y-44.806
X57.633Y-81.763
X57.963Y-122.606
X58.364Y-77.375
X58.496Y-85.228
X59.157Y-115.545
X59.157Y-117.094
X59.404Y-80.448
X59.538Y-90.881
X59.842Y-123.698
X59.893Y-115.545
X59.893Y-117.069
X59.969Y-52.908
X60.02Y-102.895
X60.3Y-90.221
X60.367Y-63.085
X60.554Y-124.968
X60.604Y-121.463
X61.112Y-92.05
X61.468Y-36.068
X61.951Y-49.657
X63.017Y-90.246
X63.221Y-109.322
X63.271Y-101.549
X63.322Y-110.617
X63.5Y-118.669
X63.5Y-124.968
X64.135Y-62.509
X64.211Y-90.322
X64.287Y-43.866
X64.338Y-121.539
X64.465Y-118.948
X64.465Y-120.574
X64.922Y-99.593
X65.024Y-51.562
X65.176Y-91.237
X65.202Y-92.659
X65.438Y-90.575
X65.456Y-53.569
X65.659Y-103.962
X65.888Y-56.585
X65.888Y-99.695
X66.04Y-92.659
X66.087Y-114.275
X66.192Y-51.613
X66.37Y-118.389
X66.573Y-39.675
X66.853Y-122.58
X66.878Y-120.04
X67.259Y-114.503
X67.31Y-105.512
X67.361Y-93.878
X67.589Y-112.09
X67.691Y-101.473
X67.691Y-119.456
X67.818Y-80.467
X67.996Y-104.8
X68.174Y-83.007
X68.275Y-117.45
X68.377Y-60.808
X68.91Y-48.438
X68.91Y-49.276
X69.469Y-53.975
X69.571Y-81.89
X69.571Y-121.514
X69.647Y-124.79
X69.698Y-82.982
X69.748Y-113.792
X70.714Y-113.792
X71.095Y-42.139
X71.095Y-52.705
X71.171Y-81.788
X71.241Y-102.743
X71.628Y-125.628
X71.704Y-108.229
X71.73Y-110.744
X71.806Y-100.33
X71.806Y-105.715
X71.818Y-93.406
X71.831Y-98.679
X72.619Y-53.975
X72.847Y-81.737
X73.228Y-48.438
X73.228Y-49.276
X73.33Y-117.856
X73.33Y-119.126
X73.787Y-110.236
X73.863Y-86.36
X73.889Y-83.007
X73.889Y-121.463
X73.914Y-42.139
X74.447Y-100.33
X74.524Y-102.667
X74.574Y-98.679
X74.701Y-110.541
X74.854Y-93.421
X75.895Y-105.181
X75.939Y-61.392
X76.225Y-108.407
X76.378Y-91.465
X76.378Y-110.236
X76.657Y-89.002
X76.987Y-37.059
X77.14Y-82.982
X77.368Y-65.507
X77.699Y-93.929
X77.826Y-94.92
X77.927Y-87.3
X78.308Y-97.104
X78.384Y-86.36
X78.994Y-109.118
X79.096Y-88.062
X79.121Y-106.655
X79.146Y-104.699
X79.197Y-111.608
X79.198Y-122.413
X79.324Y-121.463
X79.35Y-103.734
X79.426Y-96.012
X79.502Y-117.119
X79.502Y-125.628
X79.68Y-84.125
X80.442Y-37.465
X80.645Y-63.678
X81.178Y-37.262
X81.255Y-80.543
X81.28Y-121.564
X81.28Y-125.374
X81.432Y-76.327
X81.534Y-67.818
X81.559Y-48.717
X81.657Y-49.577
X82.931Y-55.27
X82.931Y-57.963
X83.058Y-108.839
X83.388Y-63.144
X83.541Y-78.486
X83.591Y-72.136
X84.277Y-87.122
X84.303Y-89.027
X84.364Y-62.988
X84.379Y-112.547
X84.43Y-58.649
X84.455Y-63.906
X84.506Y-102.794
X84.531Y-104.775
X84.658Y-95.098
X84.709Y-96.926
X84.785Y-110.414
X84.912Y-105.74
X85.014Y-39.903
X85.268Y-86.944
X85.674Y-77.445
X85.852Y-122.631
X86.159Y-63.731
X86.159Y-69.289
X87.071Y-96.012
X87.122Y-81.636
X87.122Y-85.547
X87.122Y-87.986
X87.122Y-100.965
X87.122Y-103.988
X87.122Y-112.014
X87.122Y-115.087
X87.228Y-49.577
X87.249Y-48.717
X89.332Y-59.944
X89.764Y-70.637
X90.17Y-42.569
X90.246Y-123.266
X90.272Y-46.279
X90.5Y-48.209
X90.653Y-116.84
X90.703Y-43.993
X91.0Y-112.59
X91.008Y-111.277
X91.313Y-63.754
X91.821Y-80.366
X91.821Y-81.636
X91.923Y-73.406
X92.177Y-60.147
X92.634Y-68.707
X93.38Y-68.199
X93.421Y-119.99
X93.675Y-49.124
X94.038Y-67.818
X94.615Y-67.335
X95.174Y-66.827
X95.678Y-66.325
X96.012Y-76.556
X96.193Y-65.835
X96.758Y-65.403
X97.104Y-51.511
X97.13Y-54.127
X97.307Y-60.249
X97.739Y-46.609
X97.841Y-77.673
X97.968Y-61.773
X97.968Y-68.986
X98.323Y-45.009
X99.263Y-63.754
X100.482Y-49.835
X100.533Y-71.984
X101.778Y-62.306
X101.778Y-68.885
X101.905Y-43.231
X102.667Y-40.284
X103.2Y-63.754
X103.962Y-68.834
X104.14Y-78.918
X104.851Y-46.99
X104.877Y-48.743
X105.791Y-58.776
X106.07Y-68.656
X106.121Y-52.095
X106.147Y-61.798
X107.34Y-52.146
X107.366Y-63.754
X107.391Y-72.593
X108.636Y-43.942
X108.636Y-71.78
X108.763Y-63.246
X109.753Y-47.93
X109.906Y-52.121
X109.906Y-62.306
X109.931Y-53.213
X109.957Y-67.894
X111.506Y-58.75
X111.684Y-63.754
X111.836Y-68.783
X111.862Y-47.015
X112.014Y-72.619
X113.208Y-60.274
X113.843Y-61.798
X113.868Y-67.234
X114.046Y-78.918
X115.138Y-63.754
X115.672Y-53.416
X115.672Y-61.112
X116.383Y-71.933
X117.018Y-51.791
X117.627Y-67.64
X117.653Y-62.306
X118.364Y-38.786
X119.583Y-63.754
X119.761Y-68.529
X119.99Y-77.673
X121.514Y-76.556
X121.691Y-61.722
X121.691Y-66.523
X122.987Y-63.678
X123.038Y-62.281
X123.241Y-53.188
X123.241Y-55.702
X123.241Y-58.293
X123.317Y-60.604
X124.231Y-71.933
X125.476Y-68.707
X125.501Y-43.612
X125.552Y-62.281
X126.898Y-63.754
X127.533Y-63.754
X128.194Y-63.754
X134.95Y-97.003
X134.976Y-89.078
X134.976Y-95.047
X135.077Y-87.071
X136.017Y-61.316
X136.042Y-69.952
X136.042Y-78.613
X136.698Y-53.37
T2
X49.407Y-88.741
X49.713Y-74.508
X51.896Y-88.741
X52.052Y-74.51
X54.335Y-88.665
X54.412Y-74.508
X56.774Y-74.51
X56.976Y-88.589
X59.912Y-88.607
X60.15Y-74.821
X62.224Y-88.607
X62.512Y-74.821
X64.567Y-37.846
X64.662Y-88.607
X64.874Y-74.821
X66.751Y-37.871
X67.05Y-88.607
X67.236Y-74.821
X89.306Y-37.668
X91.338Y-37.694
X91.338Y-39.802
X93.396Y-37.668
X93.421Y-39.802
X94.793Y-43.739
X96.977Y-43.713
T3
X49.479Y-55.474
X49.479Y-58.014
X49.479Y-60.554
X49.479Y-63.094
X52.019Y-55.474
X52.019Y-58.014
X52.019Y-60.554
X52.019Y-63.094
X58.064Y-57.709
X58.064Y-60.249
X60.604Y-57.709
X60.604Y-60.249
X67.31Y-68.732
X94.818Y-122.707
X96.672Y-38.303
X99.212Y-38.303
X101.752Y-38.303
X104.292Y-38.303
X106.832Y-38.303
X109.372Y-38.303
X118.237Y-57.302
T4
X129.438Y-44.78
X131.978Y-44.78
X134.518Y-44.78
M30
